<ttFont>
<head>
    <!-- Most of this table will be recalculated by the compiler -->
    <tableVersion value="1.0"/>
    <fontRevision value="1.20099"/>
    <checkSumAdjustment value="0xdc021197"/>
    <magicNumber value="0x5f0f3cf5"/>
    <flags value="00000000 00000011"/>
    <unitsPerEm value="1000"/>
    <created value="Thu Jun 19 21:40:06 2014"/>
    <modified value="Thu Jun 19 19:40:13 2014"/>
    <xMin value="-561"/>
    <yMin value="-508"/>
    <xMax value="1972"/>
    <yMax value="945"/>
    <macStyle value="00000000 00000000"/>
    <lowestRecPPEM value="3"/>
    <fontDirectionHint value="2"/>
    <indexToLocFormat value="0"/>
    <glyphDataFormat value="0"/>
  </head>
          <CharString index="0">
            -22 9 -104 callsubr
            return
          </CharString>
          <CharString index="1">
            -14 32 -103 callgsubr
          </CharString>
          <CharString index="2">
            21 -103 callsubr
            return
          </CharString>
          <CharString index="3">
            -26 11 -13 vhcurveto
            return
          </CharString>
          <CharString index="4">
            -9 26 -85 callgsubr
            return
          </CharString>
          <CharString index="5">
            vhcurveto
            -98 callgsubr
          </CharString>
          <CharString index="6">
            rmoveto
            -107 callsubr
            -93 callgsubr
            144 -75 callgsubr
            return
          </CharString>
          <CharString index="7">
            -99 callgsubr
            -51 81 return
          </CharString>
          <CharString index="8">
            -100 callsubr
            38 return
          </CharString>
          <CharString index="9">
            rmoveto
            -32 -21 -21 -32 -25 17 -25 28 -3 hvcurveto
            -5 -23 -14 -32 -23 -16 rrcurveto
            -5 13 -15 7 3 vhcurveto
            38 16 45 62 62 vvcurveto
            33 -22 21 -31 vhcurveto
            return
          </CharString>
          <CharString index="10">
            rmoveto
            92 313 90 -313 rlineto
            145 -231 rmoveto
            -193 628 -23 3 -19 0 -23 -3 rlinecurve
            -193 -630 -40 -41 callgsubr
            175 152 callsubr
            53 181 rlineto
            212 hlineto
            53 -183 109 callgsubr
            192 144 callsubr
          </CharString>
          <CharString index="11">
            -149 hlineto
            -94 callgsubr
            return
          </CharString>
          <CharString index="12">
            26 -77 callsubr
            return
          </CharString>
          <CharString index="13">
            hlineto
            -105 callsubr
            return
          </CharString>
          <CharString index="14">
            rmoveto
            -104 callgsubr
            return
          </CharString>
          <CharString index="15">
            vhcurveto
            363 -96 callsubr
            return
          </CharString>
          <CharString index="16">
            -107 callgsubr
            124 -204 hlineto
            -37 -85 callsubr
            return
          </CharString>
          <CharString index="17">
            vlineto
            -90 callgsubr
          </CharString>
          <CharString index="18">
            240 callsubr
            -47 -23 -57 hhcurveto
            -82 193 callsubr
            23 55 57 140 callgsubr
            return
          </CharString>
          <CharString index="19">
            rmoveto
            25 callgsubr
            -385 vlineto
            -142 -66 -63 -108 -95 -59 59 149 vhcurveto
            1 384 45 680 callsubr
            16 callsubr
            return
          </CharString>
          <CharString index="20">
            -72 callgsubr
            5 -15 566 callsubr
            return
          </CharString>
          <CharString index="21">
            rmoveto
            -136 -88 -106 -170 2 hvcurveto
            -153 2 73 -90 131 hhcurveto
            144 82 112 163 -2 hvcurveto
            195 -1 -116 49 -91 hhcurveto
            -7 -52 rmoveto
            100 1 41 -102 -108 vvcurveto
            -119 -49 -87 -92 vhcurveto
            -97 -1 -44 92 115 vvcurveto
            117 49 92 92 vhcurveto
            return
          </CharString>
          <CharString index="22">
            -1 -29 -7 -9 -16 rrcurveto
            -2 -5 -2 -10 -9 vvcurveto
            -40 62 -64 32 12 6 callsubr
            256 return
          </CharString>
          <CharString index="23">
            hlineto
            -32 -81 callgsubr
            return
          </CharString>
          <CharString index="24">
            rmoveto
            265 vlineto
            142 -84 50 -78 -74 -55 -41 -36 -38 vhcurveto
            -3 hlineto
            -13 76 -129 -17 rlineto
            -13 -1 -26 25 -2 vhcurveto
            52 -6 rlineto
            -394 -42 callsubr
            -71 6 rlineto
            330 vlineto
            43 51 40 24 58 hhcurveto
            76 35 -51 -89 hvcurveto
            -259 269 callsubr
            186 hlineto
            33 -20 callgsubr
            return
          </CharString>
          <CharString index="25">
            -342 vlineto
            -33 -38 -36 -22 -56 hhcurveto
            -74 -44 49 100 hvcurveto
            295 -117 vlineto
            -33 5 -32 -10 hvcurveto
            76 -5 rlineto
            -254 vlineto
            -153 92 -50 79 74 45 33 34 34 vhcurveto
            return
          </CharString>
          <CharString index="26">
            rmoveto
            87 callsubr
            -21 -5 rlinecurve
            -132 -121 6 -11 8 -10 14 -7 rlinecurve
            return
          </CharString>
          <CharString index="27">
            344 callgsubr
            -53 41 59 -26 hvcurveto
            94 22 55 58 73 776 callsubr
            return
          </CharString>
          <CharString index="28">
            hhcurveto
            -36 -35 6 9 -28 665 callgsubr
            return
          </CharString>
          <CharString index="29">
            -68 callgsubr
            37 48 58 53 return
          </CharString>
          <CharString index="30">
            -12 14 vhcurveto
            return
          </CharString>
          <CharString index="31">
            rmoveto
            -32 230 callsubr
            57 -6 -112 -338 -108 343 rlineto
            -34 hlineto
            -123 -351 -103 348 37 3 36 3 -5 29 1 10 rlinecurve
            -160 hlineto
            -24 -3 -27 -14 1 hvcurveto
            40 -6 148 -442 rlineto
            41 hlineto
            116 310 108 -310 rlineto
            42 hlineto
            166 446 6 1 28 2 3 22 -2 18 rlinecurve
            endchar
          </CharString>
          <CharString index="32">
            544 -97 callgsubr
            return
          </CharString>
          <CharString index="33">
            544 -93 callsubr
            return
          </CharString>
          <CharString index="34">
            -46 callgsubr
            193 hlineto
            return
          </CharString>
          <CharString index="35">
            564 vlineto
            return
          </CharString>
          <CharString index="36">
            -22 10 -3 callsubr
            return
          </CharString>
          <CharString index="37">
            -141 hlineto
            -138 58 -93 111 50 43 19 20 31 vhcurveto
            503 callgsubr
            return
          </CharString>
          <CharString index="38">
            796 callgsubr
            11 27 31 vvcurveto
            38 -18 23 -25 -24 -53 378 callgsubr
            -13 -19 638 callsubr
            -84 47 92 106 74 47 121 hvcurveto
            return
          </CharString>
          <CharString index="39">
            -36 -3 6 -33 -1 -10 return
          </CharString>
          <CharString index="40">
            -107 callgsubr
            335 -85 350 callsubr
            -150 -90 -76 -110 -82 48 -67 74 -36 hvcurveto
            hintmask 1111010010000000
            -43 -21 -25 -36 -46 vvcurveto
            -73 61 -63 91 100 75 86 97 5 vhcurveto
            hintmask 1111100100000000
            14 -21 19 -34 10 -21 723 callgsubr
            -17 30 -40 45 -44 42 rrcurveto
            18 21 11 28 30 vvcurveto
            38 -18 24 -24 778 callsubr
            -16 -22 -42 -6 -28 hhcurveto
            -69 -94 30 103 91 74 52 120 hvcurveto
            hintmask 1111101000000000
            39 22 -6 9 hhcurveto
            13 1 20 23 15 vvcurveto
            endchar
          </CharString>
          <CharString index="41">
            132 callgsubr
            103 99 105 callgsubr
            436 hlineto
            -12 -18 -7 -22 -24 vvcurveto
            -54 40 -52 88 -36 vhcurveto
            4 2 10 14 2 11 rrcurveto
            -64 42 -12 35 27 vvcurveto
            49 38 25 41 58 23 -49 -53 vhcurveto
            hintmask 1101111111000000
            -91 -79 -77 -67 -15 vhcurveto
            27 -21 -31 25 -22 hhcurveto
            -26 -21 -35 -10 -8 hvcurveto
            hintmask 1011111111000000
            -47 -38 -43 -37 -54 hhcurveto
            -41 -59 23 79 76 54 33 74 41 26 -9 -18 24 hvcurveto
            19 37 rlineto
            24 -22 -48 24 -63 hhcurveto
            -85 -85 371 callsubr
            105 61 56 36 46 39 hvcurveto
            hintmask 1101111111000000
            -9 11 13 -7 18 hhcurveto
            10 9 1 2 10 hvcurveto
            54 -55 80 -112 32 604 callgsubr
            95 34 93 88 104 vvcurveto
            45 -17 38 -26 27 vhcurveto
            166 -532 hlineto
            -106 callsubr
          </CharString>
          <CharString index="42">
            hlineto
            -41 callsubr
            return
          </CharString>
          <CharString index="43">
            -48 callsubr
            11 14 return
          </CharString>
          <CharString index="44">
            333 692 -89 callgsubr
            return
          </CharString>
          <CharString index="45">
            251 -5 10 -113 rlineto
            10 -1 34 -4 32 vvcurveto
            141 -422 vlineto
            25 callgsubr
            return
          </CharString>
          <CharString index="46">
            vvcurveto
            44 -24 35 -25 25 vhcurveto
            return
          </CharString>
          <CharString index="47">
            68 34 -60 -86 hvcurveto
            73 -45 rmoveto
            48 vlineto
            92 1 -42 101 -122 hhcurveto
            -121 -107 -94 -186 -161 85 -78 119 hvcurveto
            return
          </CharString>
          <CharString index="48">
            -32 16 -33 -27 vvcurveto
            return
          </CharString>
          <CharString index="49">
            -29 callsubr
            9 -26 11 -13 vhcurveto
            143 hlineto
            29 -32 16 -33 -27 vvcurveto
            return
          </CharString>
          <CharString index="50">
            hlineto
            32 -4 34 10 -1 hvcurveto
            return
          </CharString>
          <CharString index="51">
            26 -28 699 callsubr
            31 -45 callgsubr
            return
          </CharString>
          <CharString index="52">
            hmoveto
            -104 callgsubr
            return
          </CharString>
          <CharString index="53">
            -64 callsubr
            -57 47 -96 102 return
          </CharString>
          <CharString index="54">
            rmoveto
            -24 -44 -75 -7 -61 hhcurveto
            -20 -19 1 1 -17 hvcurveto
            hintmask 1001111101000000
            13 -15 -19 8 -23 hhcurveto
            hintmask 1100111101000000
            170 callsubr
            32 18 113 hvcurveto
            50 16 -3 19 hhcurveto
            11 22 25 16 hvcurveto
            115 240 vlineto
            153 callsubr
            -834 -107 callgsubr
            317 -89 757 callsubr
            -81 64 -74 63 hvcurveto
            hintmask 1001111011000000
            39 79 31 40 hhcurveto
            30 13 -70 callgsubr
            111 88 55 87 hvcurveto
            hintmask 1010111011000000
            18 -4 20 -7 19 vhcurveto
            -5 26 32 -3 34 hhcurveto
            37 38 4 12 31 hvcurveto
            -47 vlineto
            -182 -105 326 callgsubr
            rlinecurve
            144 101 rlineto
            -123 440 callsubr
            579 vlineto
            endchar
          </CharString>
          <CharString index="55">
            109 callsubr
            -97 -78 -23 callgsubr
            80 callgsubr
            32 -18 35 vhcurveto
            return
          </CharString>
          <CharString index="56">
            -26 callgsubr
            -11 14 vhcurveto
            -1148 38 callsubr
            hintmask 0111111110000000
            -80 callgsubr
            104 98 vvcurveto
            44 -6 45 -9 33 vhcurveto
            460 hlineto
            28 17 callsubr
            3 -17 4 -17 6 -17 rrcurveto
            -66 -31 -58 -35 -53 -40 callsubr
            64 53 31 54 40 597 callgsubr
            -54 38 61 -37 86 hhcurveto
            52 204 callsubr
            -144 -105 callgsubr
          </CharString>
          <CharString index="57">
            -13 623 rmoveto
            72 2 33 -64 -65 vvcurveto
            -68 -38 -62 -68 -1 vhcurveto
            -70 -1 -35 63 67 vvcurveto
            70 39 57 67 2 vhcurveto
            108 19 rmoveto
            19 -30 -36 9 -35 hhcurveto
            -119 -69 -94 -103 7 hvcurveto
            3 -60 29 -49 49 -25 rrcurveto
            return
          </CharString>
          <CharString index="58">
            -29 callgsubr
            rlinecurve
            return
          </CharString>
          <CharString index="59">
            -36 callsubr
            24 18 return
          </CharString>
          <CharString index="60">
            19 -18 callsubr
            -21 return
          </CharString>
          <CharString index="61">
            -33 -49 callgsubr
            return
          </CharString>
          <CharString index="62">
            239 callsubr
            6 0 6 hhcurveto
            return
          </CharString>
          <CharString index="63">
            349 callsubr
            47 -23 -68 -79 -64 -58 -49 -35 hvcurveto
            13 -22 13 -20 24 -14 rrcurveto
            47 37 69 75 26 callgsubr
          </CharString>
          <CharString index="64">
            11 22 26 2 19 hhcurveto
            51 44 -34 -58 -52 -35 -39 -68 -98 -61 82 120 -59 hvcurveto
            -14 -1 -17 -10 -9 -10 rrcurveto
            -134 58 93 -109 127 hhcurveto
            90 57 56 85 6 0 5 -1 5 hvcurveto
            12 hlineto
            36 34 6 8 25 hvcurveto
            -233 vlineto
            -14 32 -18 35 vhcurveto
            564 return
          </CharString>
          <CharString index="65">
            9 callsubr
            32 -4 31 10 -1 hvcurveto
            return
          </CharString>
          <CharString index="66">
            302 callgsubr
            564 return
          </CharString>
          <CharString index="67">
            hhcurveto
            -38 -60 396 callgsubr
            48 23 -7 -20 27 hvcurveto
            19 37 rlineto
            25 -24 -46 23 -66 hhcurveto
            -82 -85 371 callsubr
            105 return
          </CharString>
          <CharString index="68">
            221 -235 hlineto
            -52 -33 -52 -35 -52 hhcurveto
            -64 278 callsubr
            return
          </CharString>
          <CharString index="69">
            6 -30 -1 -10 rlinecurve
            return
          </CharString>
          <CharString index="70">
            vlineto
            375 callsubr
          </CharString>
          <CharString index="71">
            55 -92 107 -116 29 -26 13 6 return
          </CharString>
          <CharString index="72">
            rmoveto
            172 hlineto
            14 10 2 23 -1 13 rrcurveto
            -187 136 hlineto
            -69 -17 rlineto
            -119 -44 vlineto
            -31 1 -31 -15 1 hvcurveto
            73 -303 hlineto
            -91 24 -65 100 56 86 36 40 12 -8 12 -10 3 vhcurveto
            -40 -50 -26 -4 -42 hhcurveto
            -50 -11 36 70 hvcurveto
            endchar
          </CharString>
          <CharString index="73">
            22 9 14 -30 callgsubr
            return
          </CharString>
          <CharString index="74">
            -18 -27 -67 -82 -36 -72 -17 -19 2 5 -14 hvcurveto
            31 -15 -26 42 -31 hhcurveto
            -24 return
          </CharString>
          <CharString index="75">
            -5 callsubr
            vlineto
            return
          </CharString>
          <CharString index="76">
            214 callgsubr
            -490 vlineto
            -350 540 rlineto
            -106 -84 callsubr
            178 hlineto
            return
          </CharString>
          <CharString index="77">
            -34 131 57 25 118 61 500 callsubr
            168 55 60 65 hintmask 10111100
            596 281 rmoveto
            -58 -27 -64 -35 -58 273 callsubr
            64 28 29 -3 -17 27 hvcurveto
            17 31 rlineto
            31 -30 -41 16 -50 hhcurveto
            -81 -86 -47 -101 -87 67 -84 114 62 38 24 32 36 hvcurveto
            22 -51 rmoveto
            -29 -67 -92 -19 -70 hhcurveto
            hintmask 11111100
            -129 -112 51 74 -55 hvcurveto
            92 9 34 92 115 vvcurveto
            44 -6 37 709 callgsubr
            -566 -107 callgsubr
            141 hlineto
            19 -38 16 -50 -51 vvcurveto
            -23 -2 -34 -9 -26 vhcurveto
            5 -18 -20 4 -17 hhcurveto
            -49 -27 -22 -41 -99 129 -114 174 -17 hvcurveto
            -267 -73 3 -23 11 -26 11 -12 rlinecurve
            539 169 rlineto
            return
          </CharString>
          <CharString index="78">
            -80 callsubr
            210 hmoveto
            21 -8 26 -12 14 vhcurveto
            -610 hlineto
            -22 return
          </CharString>
          <CharString index="79">
            rmoveto
            21 -29 -41 19 -54 hhcurveto
            -82 -85 -47 -101 -87 66 -84 115 48 33 14 21 29 hvcurveto
            -48 vlineto
            -21 -60 -62 -9 -61 hhcurveto
            hintmask 11111110
            -129 -110 51 75 -55 hvcurveto
            93 8 33 94 109 vvcurveto
            43 -6 41 -9 35 vhcurveto
            366 hlineto
            hintmask 10111110
            -297 vmoveto
            -37 -32 -50 -22 -45 273 callsubr
            63 45 643 callsubr
            211 182 -97 callgsubr
            -795 431 callgsubr
            hintmask 11111110
            18 -38 15 -50 -51 vvcurveto
            -23 -2 -34 -8 -26 vhcurveto
            5 -18 -22 4 -17 hhcurveto
            -48 -26 -23 -40 -99 127 -114 174 -17 hvcurveto
            -267 -73 3 -23 11 -26 12 -12 rlinecurve
            488 152 rlineto
            -62 440 callsubr
            582 vlineto
            endchar
          </CharString>
          <CharString index="80">
            2 -4 callsubr
            return
          </CharString>
          <CharString index="81">
            -3 -38 callsubr
            return
          </CharString>
          <CharString index="82">
            rmoveto
            -13 20 -12 25 29 vvcurveto
            108 callsubr
            hintmask 1111110110000000
            50 439 rmoveto
            164 hlineto
            340 callsubr
            -115 84 -97 147 -8 hvcurveto
            -175 -111 7 434 callsubr
            747 callgsubr
            -159 118 rlineto
            118 11 60 70 72 vvcurveto
            76 -67 34 -55 vhcurveto
            hintmask 1111111110000000
            391 callsubr
            27 -33 hvcurveto
            -1 -13 -13 -1 -14 hhcurveto
            -103 -63 62 87 639 callsubr
            hvcurveto
            hintmask 1111110110000000
            26 28 271 callgsubr
            endchar
          </CharString>
          <CharString index="83">
            73 -61 63 -87 -49 -51 -17 -39 -49 vhcurveto
            6 -20 18 -27 17 -15 rrcurveto
            44 45 44 17 39 hhcurveto
            42 28 -22 -44 -44 -25 -53 -124 -35 hvcurveto
            5 -20 12 -24 14 -14 rrcurveto
            return
          </CharString>
          <CharString index="84">
            -135 112 50 382 428 callsubr
            hintmask 01010100
            420 605 rmoveto
            -75 203 callsubr
            74 -94 callsubr
            -107 -193 rmoveto
            -36 -10 -32 -12 -25 -15 rrcurveto
            hintmask 00110100
            -40 9 -50 38 64 vvcurveto
            53 36 41 callsubr
            145 callgsubr
            -43 28 -54 -87 -58 -60 -72 -55 35 -60 79 -30 vhcurveto
            hintmask 11011100
            -19 -23 -11 -27 -34 vvcurveto
            -83 62 -52 76 -10 vhcurveto
            -145 -76 8 398 callgsubr
            324 199 -18 101 rlineto
            -61 -31 -77 -56 -67 hhcurveto
            -53 -44 766 callgsubr
            75 22 hvcurveto
            hintmask 01010100
            -7 21 -17 501 callgsubr
            return
          </CharString>
          <CharString index="85">
            rmoveto
            726 callgsubr
            53 38 -20 -28 34 hvcurveto
            -118 vlineto
            -6 -8 -8 -8 -8 -7 rrcurveto
            -39 -29 rmoveto
            -16 -29 -34 -10 -34 hhcurveto
            -50 -56 34 79 36 422 callgsubr
            445 192 -93 callsubr
            return
          </CharString>
          <CharString index="86">
            303 callgsubr
            28 callgsubr
            return
          </CharString>
          <CharString index="87">
            563 rmoveto
            29 327 callsubr
            -29 -29 -23 -24 -28 -29 23 -23 29 hvcurveto
            164 hmoveto
            -18 callgsubr
            return
          </CharString>
          <CharString index="88">
            521 callsubr
            10 14 -39 46 -12 hvcurveto
            return
          </CharString>
          <CharString index="89">
            32 callgsubr
            -4 return
          </CharString>
          <CharString index="90">
            67 -26 37 -19 -1 -49 -1 -56 -52 -29 -59 1 rrcurveto
            -67 -44 38 53 -11 hvcurveto
            -27 1 -23 -18 -1 -32 rrcurveto
            -61 81 -31 75 -2 vhcurveto
            123 -2 68 82 1 81 return
          </CharString>
          <CharString index="91">
            135 callsubr
            -83 60 -76 87 -17 hvcurveto
            -129 -71 7 456 callgsubr
            168 rlineto
            -138 110 callgsubr
            return
          </CharString>
          <CharString index="92">
            10 callsubr
            hintmask 1010011110000000
            -60 callgsubr
            637 callsubr
            hintmask 1101101110000000
            -10 callgsubr
            32 -7 -28 57 -79 hhcurveto
            270 callsubr
            hintmask 1101011110000000
            229 callsubr
            return
          </CharString>
          <CharString index="93">
            86 callsubr
            -164 hmoveto
            29 327 callsubr
            -29 -29 -23 -24 -28 -29 23 -23 29 hvcurveto
            return
          </CharString>
          <CharString index="94">
            26 41 vvcurveto
            43 36 21 33 40 32 -31 -57 return
          </CharString>
          <CharString index="95">
            230 callgsubr
            -27 hhcurveto
            -21 219 callgsubr
            return
          </CharString>
          <CharString index="96">
            hlineto
            19 -41 15 -52 -45 vvcurveto
            -22 -4 -15 -9 -18 vhcurveto
            3 -14 -21 4 -25 hhcurveto
            -41 -29 -21 -40 -26 15 -34 20 -36 hvcurveto
            52 -89 108 -116 29 -25 12 6 28 19 10 15 -56 46 -99 103 -51 82 return
          </CharString>
          <CharString index="97">
            3 -28 -18 hvcurveto
            71 -398 hlineto
            65 callgsubr
            213 hlineto
            32 -5 27 14 hvcurveto
            -98 6 rlineto
            396 return
          </CharString>
          <CharString index="98">
            61 99 20 callgsubr
            return
          </CharString>
          <CharString index="99">
            -74 callsubr
            -315 hlineto
            -22 11 580 callsubr
            -117 730 callgsubr
            hintmask 10111100
            95 -54 58 -86 -66 -48 -33 -62 -63 48 -49 77 -34 vhcurveto
            -27 callgsubr
            62 365 callgsubr
            hintmask 11011100
            -98 callgsubr
          </CharString>
          <CharString index="100">
            248 callsubr
            -24 42 -34 hhcurveto
            -24 -30 -22 -34 -38 50 -25 51 -12 -45 callsubr
            111 88 55 87 57 -37 75 -69 hvcurveto
            return
          </CharString>
          <CharString index="101">
            rmoveto
            -29 2 -39 1 -38 1 rrcurveto
            1 -39 -42 1 -37 hhcurveto
            242 224 vlineto
            return
          </CharString>
          <CharString index="102">
            hlineto
            -22 9 -26 11 -13 vhcurveto
            -93 callgsubr
            return
          </CharString>
          <CharString index="103">
            36 -49 callsubr
            return
          </CharString>
          <CharString index="104">
            -26 10 -13 vhcurveto
            return
          </CharString>
          <CharString index="105">
            98 callgsubr
            105 81 49 122 23 23 -4 -1 10 hvcurveto
            10 361 callgsubr
            return
          </CharString>
          <CharString index="106">
            -21 -39 146 callgsubr
            hvcurveto
            return
          </CharString>
          <CharString index="107">
            -22 -15 8 10 -13 hvcurveto
            -6 -4 -8 -12 2 -15 rrcurveto
            -15 14 24 -13 35 hhcurveto
            54 39 31 49 38 -23 32 -58 hvcurveto
            return
          </CharString>
          <CharString index="108">
            25 callsubr
            43 40 10 return
          </CharString>
          <CharString index="109">
            -94 -71 -93 -46 25 -37 30 -33 hvcurveto
            endchar
          </CharString>
          <CharString index="110">
            rmoveto
            -25 -3 -27 -25 -11 -21 199 -107 rcurveline
            14 774 callgsubr
            11 rrcurveto
            return
          </CharString>
          <CharString index="111">
            rmoveto
            14 774 callgsubr
            11 -165 127 rcurveline
            -25 -3 -27 -25 -11 -21 rrcurveto
            endchar
          </CharString>
          <CharString index="112">
            26 -15 60 -46 55.5 390 44.5 return
          </CharString>
          <CharString index="113">
            14 4 10 301 callsubr
            35 36 vvcurveto
            return
          </CharString>
          <CharString index="114">
            -59 hlineto
            -62 -6 -42 -47 -64 vvcurveto
            -80 66 -47 54 -24 vhcurveto
            10 7 7 10 2 11 rrcurveto
            hintmask 1100100111111000
            -60 callgsubr
            765 callsubr
            hintmask 1100101011111000
            -11 -1 -33 -8 -39 548 callgsubr
            hintmask 1101011011111000
            594 callsubr
            -61 -55 40 -59 72 -22 hvcurveto
            hintmask 1110010111111000
            217 callgsubr
            return
          </CharString>
          <CharString index="115">
            96 58 -40 -96 hvcurveto
            49 13 32 28 62 -57 66 -145 -208 -109 -158 -221 5 hvcurveto
            -208 5 99 -122 175 hhcurveto
            return
          </CharString>
          <CharString index="116">
            vlineto
            -43 31 callgsubr
            188 hlineto
            return
          </CharString>
          <CharString index="117">
            429 callsubr
            -682 -107 callgsubr
            465 -58 hlineto
            -64 -5 -42 -47 -66 vvcurveto
            -80 64 -46 56 -25 vhcurveto
            10 7 7 10 2 11 rrcurveto
            return
          </CharString>
          <CharString index="118">
            435 callgsubr
            139 465 callgsubr
            return
          </CharString>
          <CharString index="119">
            432 -119 vlineto
            -32 4 -32 -10 1 hvcurveto
            77 -5 rlineto
            return
          </CharString>
          <CharString index="120">
            -97 callgsubr
            -263 -107 callgsubr
            52 -314 hlineto
            -27 -29 -43 -24 -59 hhcurveto
            -74 -61 40 59 -35 323 callsubr
            hintmask 10111100
            85 -66 64 -83 389 callgsubr
            vhcurveto
            78 callgsubr
            -107 75 -88 114 -11 -157 -86 rcurveline
            326 callgsubr
            277 177 rcurveline
            -145 243 callgsubr
          </CharString>
          <CharString index="121">
            72 callsubr
            345 hlineto
            21 -9 26 -11 14 vhcurveto
            -802 11 callgsubr
            272 vlineto
            -44 callsubr
          </CharString>
          <CharString index="122">
            -187 432 callsubr
            229 27.5 vstem
            440 314 rmoveto
            -32 3 -52 2 -48 1 rrcurveto
            1 -42 -45 1 -37 hhcurveto
            222 202 106 callgsubr
            -396 21 callsubr
            39 38 -1 -1 35 hvcurveto
            40 43 -2 -3 33 hvcurveto
            -306 -220 137 callgsubr
            rlinecurve
            293 232 rlineto
            return
          </CharString>
          <CharString index="123">
            13 callgsubr
            -386 vlineto
            return
          </CharString>
          <CharString index="124">
            -59 callsubr
            96 callgsubr
            return
          </CharString>
          <CharString index="125">
            rmoveto
            -87 -64 32 61 36 23 40 33 29 hvcurveto
            23 -4 28 -1 31 -1 rrcurveto
            108 -3 76 -7 -66 vvcurveto
            -60 -58 -56 -113 vhcurveto
            return
          </CharString>
          <CharString index="126">
            -104 callgsubr
            -504 154 callgsubr
            -90 -121 hlineto
            -86 -51 -32 -69 return
          </CharString>
          <CharString index="127">
            rmoveto
            -93 -65 52 88 603 callgsubr
            hvcurveto
            116 461 rmoveto
            204 -94 callsubr
            -592 -107 callgsubr
            321 -108 hlineto
            1 -8 -9 259 callsubr
            -119 93 -89 127 -10 hvcurveto
            -170 -107 8 -19 215 callgsubr
            137 -110 12 6 21 21 6 12 rlinecurve
            -156 116 rlineto
            602 callgsubr
            endchar
          </CharString>
          <CharString index="128">
            -107 callgsubr
            128 -223 hlineto
            -37 -25 540 callgsubr
            -3 266 callgsubr
            -40 61 -61 28 12 16 4 9 5 vhcurveto
            11 15 9 32 32 vvcurveto
            return
          </CharString>
          <CharString index="129">
            rmoveto
            -15 -28 -33 -10 -33 hhcurveto
            -50 -56 33 76 36 422 callgsubr
            233 -119 rmoveto
            -7 -8 -7 -8 -8 -7 -172 172 463 callsubr
            52 37 -19 -28 34 hvcurveto
            211 194 552 callsubr
            -140 hlineto
            28 -35 -50 25 -61 hhcurveto
            -88 -93 -52 -110 -85 57 -85 100 -16 hvcurveto
            -135 -74 7 -22 16 -23 15 -12 rlinecurve
            267 172 rlineto
            -138 -90 callsubr
          </CharString>
          <CharString index="130">
            rmoveto
            -39 callsubr
            return
          </CharString>
          <CharString index="131">
            rrcurveto
            3 18 24 2 22 hhcurveto
            24 19 return
          </CharString>
          <CharString index="132">
            115 callgsubr
            15 return
          </CharString>
          <CharString index="133">
            -209 723 callsubr
            52 65 vstem
            120 callsubr
            375 -92 callgsubr
            -29 -422 rmoveto
            -16 -27 -32 -9 -35 hhcurveto
            -52 -53 34 76 34 10 29 18 22 hvcurveto
            252 -89 rmoveto
            -10 -19 -14 -18 -17 -16 -171 172 rcurveline
            9 19 23 5 26 hhcurveto
            49 25 -11 -15 23 hvcurveto
            650 callgsubr
            -88 59 -84 102 -13 hvcurveto
            -137 -74 8 -22 16 -23 15 -12 rlinecurve
            311 201 rlineto
            return
          </CharString>
          <CharString index="134">
            -38 vhcurveto
            5 2 10 14 2 11 rrcurveto
            -65 43 -12 return
          </CharString>
          <CharString index="135">
            -21 -9 -18 vhcurveto
            -11 4 -14 4 -18 1 rrcurveto
            43 -23 -46 21 -46 hhcurveto
            -45 -42 -20 -31 -34 hvcurveto
            -68 -125 -43 callgsubr
            return
          </CharString>
          <CharString index="136">
            612 callgsubr
            302 callsubr
            return
          </CharString>
          <CharString index="137">
            hhcurveto
            -36 70 callsubr
            return
          </CharString>
          <CharString index="138">
            29 -59 callsubr
            return
          </CharString>
          <CharString index="139">
            60 -85 78 95 vvcurveto
            return
          </CharString>
          <CharString index="140">
            rmoveto
            -133 vlineto
            12 -7 32 7 3 31 4 56 rcurveline
            198 5 -285 -419 2 -11 4 -11 5 -7 rlinecurve
            359 136 hlineto
            -11 7 -32 -7 -3 -30 -6 -57 rcurveline
            -231 -4 282 414 -3 11 -5 12 -5 7 rlinecurve
            return
          </CharString>
          <CharString index="141">
            220 -236 hlineto
            -52 -33 -52 -34 -52 hhcurveto
            -64 -19 290 callgsubr
            return
          </CharString>
          <CharString index="142">
            hhcurveto
            -69 -45 -48 -50 -27 hvcurveto
            return
          </CharString>
          <CharString index="143">
            624 callsubr
            -24 62 callgsubr
            return
          </CharString>
          <CharString index="144">
            22 28 36 vhcurveto
            -140 -105 callgsubr
          </CharString>
          <CharString index="145">
            -107 callgsubr
            147 hlineto
            return
          </CharString>
          <CharString index="146">
            -50 -15 55 597 55 682 callsubr
            hintmask 11110000
            259 692 rmoveto
            -113 -2 -94 -65 -109 vvcurveto
            -104 94 -44 105 -46 vhcurveto
            hintmask 11101000
            23 callgsubr
            101 -73 36 -111 48 hvcurveto
            228 callgsubr
            hintmask 11110000
            85 37 -45 -71 hvcurveto
            31 -1 32 17 47 vvcurveto
            85 -112 25 -67 -2 vhcurveto
            return
          </CharString>
          <CharString index="147">
            146 0 48 264 51 268 669 callgsubr
            263 180 51 -180 267 47 callgsubr
            -265 -52 -51 52 -263 66 callsubr
          </CharString>
          <CharString index="148">
            626 callgsubr
            -16 399 callsubr
            8 797 callgsubr
            return
          </CharString>
          <CharString index="149">
            -92 106 101 callgsubr
            return
          </CharString>
          <CharString index="150">
            59 313 callgsubr
            390 544 rmoveto
            142 hlineto
            131 callgsubr
            -127 105 -87 134 103 75 51 53 39 hvcurveto
            -2 callsubr
            return
          </CharString>
          <CharString index="151">
            -99 261 callsubr
            331 58 vstem
            456 605 rmoveto
            -486 -107 callgsubr
            486 -94 callsubr
            -409 -171 rmoveto
            570 callsubr
            44 763 callgsubr
            -23 27 hvcurveto
            224 64 -274 381 callgsubr
            return
          </CharString>
          <CharString index="152">
            rmoveto
            494 callsubr
            112 -6 rlineto
            -168 vlineto
            -28 -33 -60 -18 -58 hhcurveto
            -162 -58 127 165 182 72 127 150 hvcurveto
            return
          </CharString>
          <CharString index="153">
            -82 537 callsubr
            -123 114 -106 88 -65 hvcurveto
            -78 callsubr
            42 -43 -40 return
          </CharString>
          <CharString index="154">
            -204 128 63 353 61 hstem
            177 67 vstem
            402 271 rmoveto
            -38 -21 -53 -42 -73 hhcurveto
            -81 -53 41 60 -25 hvcurveto
            94 21 54 56 71 vvcurveto
            44 -23 35 -26 25 vhcurveto
            175 -92 callgsubr
            -380 -107 callgsubr
            142 85 callsubr
            -58 -44 -37 -98 -20 vhcurveto
            18 -105 65 -92 122 -12 -165 -89 rcurveline
            7 -22 17 -23 14 -12 318 203 rcurveline
            return
          </CharString>
          <CharString index="155">
            rmoveto
            -31 -29 -46 -23 -58 hhcurveto
            -82 -54 41 60 -25 hvcurveto
            95 21 55 56 71 293 callsubr
            -609 -107 callgsubr
            142 182 callgsubr
            -58 -44 -37 -98 -20 vhcurveto
            18 -104 64 -92 121 -13 -163 -89 rcurveline
            8 -22 16 -23 14 -12 276 178 rcurveline
            -148 -105 callgsubr
          </CharString>
          <CharString index="156">
            134 callgsubr
            hintmask 1110011110000000
            442 -24 452 callgsubr
            10 -13 vhcurveto
            92 -204 hlineto
            -8 -23 -29 -4 -28 hhcurveto
            -44 -45 9 18 -29 hvcurveto
            46 40 31 46 49 vvcurveto
            hintmask 1100111110000000
            102 callsubr
            return
          </CharString>
          <CharString index="157">
            rmoveto
            626 callsubr
            -132 -121 rcurveline
            6 -11 8 -10 14 -7 286 callgsubr
            endchar
          </CharString>
          <CharString index="158">
            35 callgsubr
            44 42 279 callsubr
            return
          </CharString>
          <CharString index="159">
            112 29 628 callgsubr
            39 -45 13 216 callsubr
            return
          </CharString>
          <CharString index="160">
            -75 -36 50 29 -11 hvcurveto
            -34 -16 rlineto
            -58 8 48 -70 99 hhcurveto
            98 49 70 58 8 hvcurveto
            return
          </CharString>
          <CharString index="161">
            hhcurveto
            -53 -44 766 callgsubr
            76 468 callsubr
            -18 501 callgsubr
            return
          </CharString>
          <CharString index="162">
            443 callgsubr
            hvcurveto
            211 197 rmoveto
            21 -9 26 return
          </CharString>
          <CharString index="163">
            rmoveto
            -52 -39 -70 -34 -50 hhcurveto
            -41 -62 22 85 90 5 callgsubr
            -589 -107 callgsubr
            378 29 callsubr
            -84 57 -84 99 -16 hvcurveto
            -135 -74 623 callgsubr
            270 174 rlineto
            -141 -90 callsubr
          </CharString>
          <CharString index="164">
            47 32 54 57 62 601 callsubr
            24 -14 rrcurveto
            47 37 return
          </CharString>
          <CharString index="165">
            -12 callsubr
            -2 return
          </CharString>
          <CharString index="166">
            85 37 -45 -71 hvcurveto
            31 -1 32 17 47 vvcurveto
            85 -112 25 -67 -2 vhcurveto
            -113 -2 -94 -65 -109 vvcurveto
            -104 94 -44 105 -46 vhcurveto
            return
          </CharString>
          <CharString index="167">
            388 605 rmoveto
            -418 -107 callgsubr
            418 -94 callsubr
            -29 -165 rmoveto
            -363 hlineto
            1 -23 10 -23 10 -15 rrcurveto
            151 hlineto
            -30 -19 -24 -36 -44 vvcurveto
            return
          </CharString>
          <CharString index="168">
            116 191 61 hstem
            178 57 vstem
            354 -74 callsubr
            -364 -107 callgsubr
            156 hlineto
            18 -41 14 -54 187 callgsubr
            -100 200 -197 27 -24 hvcurveto
            12 6 27 19 11 15 -56 46 -102 98 -50 81 rrcurveto
            95 3 37 83 93 vvcurveto
            41 -7 50 -9 37 vhcurveto
            return
          </CharString>
          <CharString index="169">
            -1 -19 -7 -11 -9 rrcurveto
            -117 40 81 -138 124 hhcurveto
            74 39 48 60 43 return
          </CharString>
          <CharString index="170">
            -44 -33 -35 -48 -54 vvcurveto
            -76 70 -58 126 147 90 80 114 97 -66 26 -157 3 vhcurveto
            return
          </CharString>
          <CharString index="171">
            hlineto
            -2 callgsubr
            return
          </CharString>
          <CharString index="172">
            -258 366 68 110 61 hstem
            -30 419 vstem
            120 callsubr
            327 -94 callsubr
            72 -281 rmoveto
            -23 -14 rlineto
            78 -76 -51 46 -82 123 callgsubr
            -54 54 hvcurveto
            -244 -148 300 callsubr
            291 194 rlineto
            return
          </CharString>
          <CharString index="173">
            vlineto
            -47 -4 rlineto
            -32 -2 3 -29 -14 vvcurveto
            243 hlineto
            223 118 119 227 221 -100 112 -242 hvcurveto
            endchar
          </CharString>
          <CharString index="174">
            284 733 callgsubr
            50 60 hhcurveto
            43 43 279 callsubr
            -58 232 callsubr
            -71 69 -86 -46 563 callsubr
            vhcurveto
            endchar
          </CharString>
          <CharString index="175">
            -50 -47 -1 297 callgsubr
            -59 22 -12 312 callgsubr
            return
          </CharString>
          <CharString index="176">
            351 callsubr
            464 139 hlineto
            31 -34 -4 -10 -1 vhcurveto
            endchar
          </CharString>
          <CharString index="177">
            -36 6 9 -28 hvcurveto
            533 callsubr
            return
          </CharString>
          <CharString index="178">
            rmoveto
            -93 -65 52 88 603 callgsubr
            hvcurveto
            116 461 rmoveto
            204 hlineto
            334 callsubr
            316 callgsubr
            111 -70 52 -77 20 hvcurveto
            endchar
          </CharString>
          <CharString index="179">
            23 callsubr
            288 121 rmoveto
            return
          </CharString>
          <CharString index="180">
            661 callsubr
            -49 30 callgsubr
            return
          </CharString>
          <CharString index="181">
            112 callgsubr
            15 -7 rrcurveto
            return
          </CharString>
          <CharString index="182">
            121 113 35 93 77 80 -25 -97 -101 -94 -73 return
          </CharString>
          <CharString index="183">
            134 -88 13 7 9 11 return
          </CharString>
          <CharString index="184">
            rmoveto
            6 -16 -32 5 -27 hhcurveto
            -21 -18 -2 -2 -15 hvcurveto
            -2 166 callgsubr
            return
          </CharString>
          <CharString index="185">
            rmoveto
            106 hlineto
            19 callsubr
            hvcurveto
            return
          </CharString>
          <CharString index="186">
            -49 -32 -20 -29 -40 47 -59 23 -13 hvcurveto
            -1 192 callsubr
            8 4 8 7 hvcurveto
            11 15 12 40 3 34 57 return
          </CharString>
          <CharString index="187">
            13 rrcurveto
            -41 54 -70 108 85 vvcurveto
            return
          </CharString>
          <CharString index="188">
            -45 vvcurveto
            -22 -4 -21 -9 -18 vhcurveto
            5 -14 566 callsubr
            return
          </CharString>
          <CharString index="189">
            35 callgsubr
            7 hlineto
            -11 -21 -6 -25 -27 vvcurveto
            -95 79 -85 107 54 42 20 28 35 vhcurveto
            -142 223 callgsubr
            793 callgsubr
            vhcurveto
            endchar
          </CharString>
          <CharString index="190">
            33 -48 18 -41 26 -50 598 callsubr
            9 14 -17 35 -44 48 -42 40 87 callgsubr
            15 -19 vhcurveto
            -13 -19 return
          </CharString>
          <CharString index="191">
            vvcurveto
            -40 45 -58 23 98 callsubr
            return
          </CharString>
          <CharString index="192">
            hlineto
            31 callsubr
            return
          </CharString>
          <CharString index="193">
            rmoveto
            -18 callgsubr
            return
          </CharString>
          <CharString index="194">
            134 -88 13 7 9 11 738 callgsubr
            return
          </CharString>
          <CharString index="195">
            rmoveto
            30 441 callsubr
            -30 -29 -20 -20 -29 -29 20 -21 29 hvcurveto
            return
          </CharString>
          <CharString index="196">
            rmoveto
            -54 -33 -53 -36 -52 hhcurveto
            -76 299 callsubr
            233 346 callgsubr
            -603 -107 callgsubr
            87 -135 hlineto
            -131 55 -90 112 -6 vhcurveto
            -164 -120 137 callgsubr
            rlinecurve
            261 213 rlineto
            -209 -105 callgsubr
          </CharString>
          <CharString index="197">
            -107 callgsubr
            116 156 callgsubr
            64 -65 464 callsubr
            328 callsubr
            return
          </CharString>
          <CharString index="198">
            -37 6 20 -26 47 hhcurveto
            34 27 13 34 hvcurveto
            endchar
          </CharString>
          <CharString index="199">
            rmoveto
            6 -16 -32 5 -27 hhcurveto
            -21 -18 149 callsubr
            return
          </CharString>
          <CharString index="200">
            109 callsubr
            -96 -79 -23 callgsubr
            80 callgsubr
            return
          </CharString>
          <CharString index="201">
            -75 -36 51 28 -11 hvcurveto
            -34 -16 rlineto
            -57 8 48 -71 99 hhcurveto
            98 49 71 57 8 hvcurveto
            return
          </CharString>
          <CharString index="202">
            401 callgsubr
            58 74 vvcurveto
            102 return
          </CharString>
          <CharString index="203">
            rmoveto
            -42 -22 -55 -41 -76 hhcurveto
            -82 -46 callgsubr
            160 -94 callsubr
            -365 -107 callgsubr
            142 673 callsubr
            -112 20 73 -99 141 hhcurveto
            67 57 32 22 26 hvcurveto
            endchar
          </CharString>
          <CharString index="204">
            50 callgsubr
            -38 -21 -33 -39 54 -25 54 -13 589 callgsubr
            return
          </CharString>
          <CharString index="205">
            -13 156 callsubr
            return
          </CharString>
          <CharString index="206">
            495 callsubr
            rrcurveto
            15 18 15 10 1 hvcurveto
            1 14 -11 50 return
          </CharString>
          <CharString index="207">
            12 11 9 721 callgsubr
            -85 78 95 vvcurveto
            return
          </CharString>
          <CharString index="208" raw="1">
            98f7281d 1f0b  
          </CharString>
          <CharString index="209">
            69 -48 60 -75 -72 -50 -54 -61 -60 50 -53 33 -24 vhcurveto
            -51 -32 -60 -26 -47 -13 8 -23 15 -26 9 -9 return
          </CharString>
          <CharString index="210">
            1 callgsubr
            31 13 14 4 10 410 callsubr
            return
          </CharString>
          <CharString index="211">
            -42 15 -54 -53 vvcurveto
            -26 -2 return
          </CharString>
          <CharString index="212">
            -204 hlineto
            290 callsubr
            return
          </CharString>
          <CharString index="213">
            95 -54 58 -86 -66 -48 -33 -62 -62 45 228 callsubr
            249 callsubr
            -132 vlineto
            -52 -1 -27 -9 -35 vvcurveto
            -44 61 -53 18 -6 vhcurveto
            -1 5 6 51 callgsubr
            return
          </CharString>
          <CharString index="214">
            323 callgsubr
            20 535 callsubr
            9 13 -17 30 -45 53 -38 36 rrcurveto
            20 19 12 25 27 vvcurveto
            37 -21 22 -21 -22 return
          </CharString>
          <CharString index="215">
            42 25 33 41 24 29 -12 -36 -50 -37 -35 -57 -16 vhcurveto
            return
          </CharString>
          <CharString index="216">
            298 callgsubr
            -53 hhcurveto
            return
          </CharString>
          <CharString index="217">
            61 -34 34 -34 48 hstemhm
            return
          </CharString>
          <CharString index="218">
            71 27 -51 -43 1 hvcurveto
            28 -1 28 12 42 vvcurveto
            56 -53 39 -86 return
          </CharString>
          <CharString index="219">
            -29 -8 -27 -10 -24 -12 rrcurveto
            -34 6 -43 29 54 vvcurveto
            26 10 25 return
          </CharString>
          <CharString index="220">
            -35 -9 -32 -12 -26 -16 rrcurveto
            -41 return
          </CharString>
          <CharString index="221">
            34 157 callsubr
            return
          </CharString>
          <CharString index="222">
            hlineto
            -5 -2 -20 -19 -7 -12 rrcurveto
            73 -54 80 -79 -75 vvcurveto
            -43 -25 -53 -84 -2 vhcurveto
            38 -22 -24 34 -27 hhcurveto
            -23 -40 -22 -32 -25 44 -38 65 -11 hvcurveto
            34 -55 31 -63 22 -49 21 8 27 21 9 13 -16 28 -43 56 -35 39 rrcurveto
            89 5 61 51 84 vvcurveto
            60 -34 70 -82 62 vhcurveto
            return
          </CharString>
          <CharString index="223">
            -50 -47 488 callgsubr
            -59 22 -12 311 callsubr
            return
          </CharString>
          <CharString index="224">
            442 callgsubr
            6 6 0 -2 6 hvcurveto
            -374 -37 callsubr
          </CharString>
          <CharString index="225">
            -44 -16 51 -50 55 173 49 191 51 return
          </CharString>
          <CharString index="226">
            20 143 callgsubr
            return
          </CharString>
          <CharString index="227">
            -30 605 rmoveto
            -107 callsubr
            return
          </CharString>
          <CharString index="228">
            -36 -28 -23 -40 -51 vvcurveto
            -140 188 -79 150 -38 vhcurveto
            8 10 5 19 4 16 rrcurveto
            -151 40 -135 57 103 vvcurveto
            74 78 48 99 return
          </CharString>
          <CharString index="229">
            689 callsubr
            -50 -58 -100 -83 -53 42 68 -57 hvcurveto
            -12 -6 -15 -12 -7 -12 return
          </CharString>
          <CharString index="230">
            226 callgsubr
            619 callsubr
            hvcurveto
            return
          </CharString>
          <CharString index="231">
            -31 -20 -20 -33 -24 17 -23 27 -3 hvcurveto
            -6 -20 -13 -26 -22 -15 rrcurveto
            -6 return
          </CharString>
          <CharString index="232">
            rmoveto
            -53 -40 189 callgsubr
            return
          </CharString>
          <CharString index="233">
            15 -45 hhcurveto
            -89 348 callsubr
            119 return
          </CharString>
          <CharString index="234">
            vlineto
            -14 32 -18 35 vhcurveto
            272 vlineto
            return
          </CharString>
          <CharString index="235">
            vhcurveto
            -7 -21 -3 -18 -1 return
          </CharString>
          <CharString index="236">
            20 27 33 41 vvcurveto
            54 return
          </CharString>
          <CharString index="237">
            49 42 11 21 31 hvcurveto
            32 -48 18 -41 26 -50 598 callsubr
            10 14 -18 35 -44 47 -42 41 87 callgsubr
            16 558 callsubr
            -80 -79 48 92 105 70 49 124 hvcurveto
            return
          </CharString>
          <CharString index="238">
            331 callgsubr
            -2 return
          </CharString>
          <CharString index="239">
            rmoveto
            49 28 -27 -40 -51 -42 -30 -52 -31 hvcurveto
            -27 17 -40 41 46 vvcurveto
            43 31 32 53 vhcurveto
            return
          </CharString>
          <CharString index="240">
            -30 -29 -47 -22 -57 hhcurveto
            -76 -50 37 55 -24 hvcurveto
            90 22 52 51 58 vvcurveto
            58 -50 37 -92 return
          </CharString>
          <CharString index="241">
            hhcurveto
            -45 -42 118 callgsubr
            return
          </CharString>
          <CharString index="242">
            104 callgsubr
            -62 -97 return
          </CharString>
          <CharString index="243">
            39 -107 115 -57 44 return
          </CharString>
          <CharString index="244">
            19 104 callsubr
            -27 -8 -21 693 callsubr
            -17 199 callsubr
            11 13 13 499 callsubr
            30 -122 44 -65 114 rrcurveto
            101 6 28 105 98 105 callgsubr
            return
          </CharString>
          <CharString index="245">
            88 callgsubr
            -89 1 -86 -50 -1 -91 -1 -88 85 -32 80 -29 rrcurveto
            return
          </CharString>
          <CharString index="246">
            hlineto
            171 callsubr
            return
          </CharString>
          <CharString index="247">
            -199 127 callsubr
            return
          </CharString>
          <CharString index="248">
            354 callgsubr
            660 callsubr
            12 return
          </CharString>
          <CharString index="249">
            hlineto
            -42 callgsubr
            return
          </CharString>
          <CharString index="250">
            vlineto
            -42 callgsubr
            return
          </CharString>
          <CharString index="251">
            -57 callsubr
            endchar
          </CharString>
          <CharString index="252">
            hhcurveto
            -72 -46 -48 -51 -28 hvcurveto
            return
          </CharString>
          <CharString index="253">
            -5 543 42 90 42 hstem
            74 45 91 46 vstem
            167 717 rmoveto
            454 callsubr
            54 38 35 54 1 hvcurveto
            51 -35 34 -54 vhcurveto
            -2 -42 rmoveto
            27 18 -17 -28 -27 -18 -18 -27 -28 -18 18 27 28 18 17 28 hvcurveto
            endchar
          </CharString>
          <CharString index="254">
            218 callsubr
            -12 24 return
          </CharString>
          <CharString index="255">
            69 callgsubr
            211 194 callsubr
            return
          </CharString>
          <CharString index="256">
            -2 -2 -15 hvcurveto
            -2 -19 4 -30 7 -15 -33 callgsubr
            13 return
          </CharString>
          <CharString index="257">
            638 callgsubr
            -51 60 -41 64 96 64 89 61 hstemhm
            51 60 196 67 5 48 return
          </CharString>
          <CharString index="258">
            700 callsubr
            17 vhcurveto
            -7 467 callsubr
            return
          </CharString>
          <CharString index="259">
            -57 callsubr
            -75 6 return
          </CharString>
          <CharString index="260">
            210 -55 callsubr
            return
          </CharString>
          <CharString index="261">
            64 231 callgsubr
            return
          </CharString>
          <CharString index="262">
            rmoveto
            -20 -33 -49 -9 -46 524 callgsubr
            0 38 532 callsubr
            227 hlineto
            return
          </CharString>
          <CharString index="263">
            272 callsubr
            10 4 9 8 hvcurveto
            11 14 12 return
          </CharString>
          <CharString index="264">
            rrcurveto
            192 callgsubr
            return
          </CharString>
          <CharString index="265">
            4 363 callgsubr
            return
          </CharString>
          <CharString index="266">
            33 -18 -45 65 -81 hhcurveto
            -66 -85 -44 -106 -122 115 -106 88 -66 hvcurveto
            544 callgsubr
            41 -43 -38 788 callgsubr
            29 -20 24 -7 rrcurveto
            return
          </CharString>
          <CharString index="267">
            33 -17 -45 65 -81 537 callsubr
            -123 114 -106 88 -65 hvcurveto
            -78 callsubr
            41 -42 -39 788 callgsubr
            28 330 callsubr
            return
          </CharString>
          <CharString index="268">
            33 -18 -46 66 -81 hhcurveto
            -65 -86 529 callsubr
            88 611 callsubr
            -81 60 -84 602 callsubr
            -4 787 callsubr
            return
          </CharString>
          <CharString index="269">
            532 callgsubr
            -53 hhcurveto
            -75 299 callsubr
            233 vlineto
            return
          </CharString>
          <CharString index="270">
            725 callgsubr
            -41 -61 23 87 92 70 38 69 52 38 -22 -27 33 hvcurveto
            return
          </CharString>
          <CharString index="271">
            rrcurveto
            -224 -90 callsubr
          </CharString>
          <CharString index="272">
            197 callsubr
            -20 4 -29 7 -16 510 callsubr
            8 243 callsubr
          </CharString>
          <CharString index="273">
            -145 -18 rlineto
            -13 -1 -28 25 -2 vhcurveto
            52 -6 rlineto
            return
          </CharString>
          <CharString index="274">
            -78 30 -51 21 1 47 1 43 43 30 56 -1 rrcurveto
            return
          </CharString>
          <CharString index="275">
            hlineto
            -90 callgsubr
          </CharString>
          <CharString index="276">
            -107 callgsubr
            330 -90 -120 590 callsubr
            77 689 callsubr
            -48 30 callgsubr
            return
          </CharString>
          <CharString index="277">
            -46 -105 -32 -20 hhcurveto
            -13 -26 15 45 50 return
          </CharString>
          <CharString index="278">
            -37 -1 -29 393 callsubr
            return
          </CharString>
          <CharString index="279">
            -11 callsubr
            38 11 return
          </CharString>
          <CharString index="280">
            219 callgsubr
            240 callgsubr
            return
          </CharString>
          <CharString index="281">
            -37 hvcurveto
            -51 -3 -28 -17 -28 322 callsubr
            5 6 -1 5 hhcurveto
            11 10 3 10 8 hvcurveto
            11 return
          </CharString>
          <CharString index="282">
            vvcurveto
            125 callgsubr
            return
          </CharString>
          <CharString index="283">
            -364 hlineto
            2 -23 9 -23 11 -15 rrcurveto
            151 hlineto
            -31 -19 -23 -36 -44 vvcurveto
            return
          </CharString>
          <CharString index="284">
            260 callsubr
            33 -18 return
          </CharString>
          <CharString index="285">
            33 75 216 callgsubr
            return
          </CharString>
          <CharString index="286">
            -85 -15 57 221 45 146 50 return
          </CharString>
          <CharString index="287">
            392 callsubr
            149 return
          </CharString>
          <CharString index="288">
            -113 hlineto
            3 -17 -16 1 -16 hhcurveto
            return
          </CharString>
          <CharString index="289">
            15 9 589 callsubr
            return
          </CharString>
          <CharString index="290">
            -59 -44 -89 hhcurveto
            -81 -76 45 93 790 callsubr
            hvcurveto
            9 2 18 19 17 vvcurveto
            endchar
          </CharString>
          <CharString index="291">
            -39 363 callsubr
            return
          </CharString>
          <CharString index="292">
            hintmask 11011110
            -48 -105 579 callgsubr
            107 hvcurveto
            48 19 -3 26 hhcurveto
            11 21 25 15 hvcurveto
            83 -41 -1 callgsubr
            14 -39 46 -12 hvcurveto
            endchar
          </CharString>
          <CharString index="293">
            478 57 rmoveto
            12 callsubr
            return
          </CharString>
          <CharString index="294">
            10 -26 233 callgsubr
            return
          </CharString>
          <CharString index="295">
            19 -41 15 -51 81 callsubr
            return
          </CharString>
          <CharString index="296">
            129 callgsubr
            -60 -43 -38 -99 -21 vhcurveto
            return
          </CharString>
          <CharString index="297">
            468 callsubr
            -17 22 -13 13 return
          </CharString>
          <CharString index="298">
            279 callgsubr
            13 return
          </CharString>
          <CharString index="299">
            4 6 795 callsubr
            return
          </CharString>
          <CharString index="300">
            -53 372 callgsubr
            94 return
          </CharString>
          <CharString index="301">
            -55 callsubr
            -610 -107 callgsubr
            143 85 callsubr
            return
          </CharString>
          <CharString index="302">
            393 107 rmoveto
            -38 -45 -35 -25 -54 hhcurveto
            -105 -41 94 106 107 40 99 109 62 48 -30 -19 21 hvcurveto
            return
          </CharString>
          <CharString index="303">
            34 15 20 14 vhcurveto
            2 8 459 callgsubr
            return
          </CharString>
          <CharString index="304">
            -12 callsubr
            -1 return
          </CharString>
          <CharString index="305">
            296 58 107 61 hstem
            38 66 207 67 89 58 vstem
            return
          </CharString>
          <CharString index="306">
            731 callgsubr
            135 193 callgsubr
            return
          </CharString>
          <CharString index="307">
            461 callsubr
            74 -6 -163 -526 rlineto
            return
          </CharString>
          <CharString index="308">
            -105 -47 -27 -47 -87 -21 88 73 vhcurveto
            182 202 vlineto
            return
          </CharString>
          <CharString index="309">
            hlineto
            33 -4 34 10 -1 hvcurveto
            return
          </CharString>
          <CharString index="310">
            hlineto
            -22 10 -104 callsubr
            return
          </CharString>
          <CharString index="311">
            41 -4 callgsubr
            return
          </CharString>
          <CharString index="312">
            584 callsubr
            83 callgsubr
            return
          </CharString>
          <CharString index="313">
            442 callgsubr
            6 6 0 -2 6 hvcurveto
            -374 -90 callsubr
          </CharString>
          <CharString index="314">
            23 -22 -19 19 vhcurveto
            17 14 762 callgsubr
            -76 hhcurveto
            -78 -59 -51 -69 -10 hvcurveto
            hintmask 10100000
            55 -48 -59 44 -74 hhcurveto
            -42 -60 -14 -10 -23 490 callgsubr
            31 53 16 return
          </CharString>
          <CharString index="315">
            hstem
            20 280 callgsubr
            199.5 72 196.5 280 callgsubr
            vstem
            return
          </CharString>
          <CharString index="316">
            15 -39 347 callsubr
            15 43 39 10 vhcurveto
            return
          </CharString>
          <CharString index="317">
            10 39 rlineto
            33 -31 -51 15 -45 hhcurveto
            -89 -93 -52 -111 -100 74 -93 return
          </CharString>
          <CharString index="318">
            273 callgsubr
            -169 hlineto
            -135 58 -91 121 return
          </CharString>
          <CharString index="319">
            vlineto
            65 callgsubr
            return
          </CharString>
          <CharString index="320">
            494 callgsubr
            82 -79 29 rrcurveto
            return
          </CharString>
          <CharString index="321">
            759 callsubr
            538 callgsubr
            return
          </CharString>
          <CharString index="322">
            -64 callgsubr
            hvcurveto
            return
          </CharString>
          <CharString index="323">
            14 44 202 callgsubr
            return
          </CharString>
          <CharString index="324">
            -107 callgsubr
            362 return
          </CharString>
          <CharString index="325">
            21 8 28 23 9 13 return
          </CharString>
          <CharString index="326">
            39 -14 -34 48 -75 hhcurveto
            -79 -60 -53 -72 -10 hvcurveto
            78 -49 -50 46 -71 hhcurveto
            -46 -51 -18 -20 -29 hvcurveto
            9 -28 20 -33 7 -6 rrcurveto
            12 16 49 32 43 hhcurveto
            69 57 -90 -84 42 hvcurveto
            50 return
          </CharString>
          <CharString index="327">
            -142 vlineto
            -14 return
          </CharString>
          <CharString index="328">
            90 12 45 90 68 hhcurveto
            37 23 -30 -31 12 hvcurveto
            -31 -4 -19 -11 -26 vvcurveto
            -48 62 -51 18 -6 vhcurveto
            -1 4 7 51 callgsubr
            return
          </CharString>
          <CharString index="329">
            259 callgsubr
            -179 251 callsubr
            63 -65 31 13 14 5 9 301 callsubr
            36 35 vvcurveto
            231 return
          </CharString>
          <CharString index="330">
            30 -23 -28 -35 -26 -25 -39 -16 vhcurveto
            7 -21 20 -28 10 -9 rrcurveto
            47 17 32 45 46 vvcurveto
            57 return
          </CharString>
          <CharString index="331">
            -8 -15 -31 hvcurveto
            -28 25 -11 27 21 vvcurveto
            30 18 18 99 vhcurveto
            endchar
          </CharString>
          <CharString index="332">
            rmoveto
            -120 vlineto
            -32 32 3 12 1 vhcurveto
            7 97 rlineto
            return
          </CharString>
          <CharString index="333">
            -11 16 -13 13 -20 12 rrcurveto
            -52 -39 -59 -26 -62 hhcurveto
            return
          </CharString>
          <CharString index="334">
            7 2 23 214 callsubr
            return
          </CharString>
          <CharString index="335">
            -50 270 callgsubr
            return
          </CharString>
          <CharString index="336">
            217 callgsubr
            131 return
          </CharString>
          <CharString index="337">
            4 -31 -10 1 hvcurveto
            return
          </CharString>
          <CharString index="338">
            -579 vlineto
            109 callgsubr
            197 152 callsubr
            rlineto
            201 vlineto
            48 58 217 -309 rlineto
            91 hlineto
            31 -1 31 10 -3 hvcurveto
            return
          </CharString>
          <CharString index="339">
            771 callsubr
            17 -18 22 95 callsubr
            return
          </CharString>
          <CharString index="340">
            328 callgsubr
            62 58 94 61 hstem
            171 55 55 65 return
          </CharString>
          <CharString index="341">
            -36 -3 5 -33 -10 vvcurveto
            return
          </CharString>
          <CharString index="342">
            -11 420 callgsubr
            return
          </CharString>
          <CharString index="343">
            vvcurveto
            684 callgsubr
            vhcurveto
            12 17 12 26 424 callsubr
            360 hlineto
            return
          </CharString>
          <CharString index="344">
            259 callgsubr
            -169 hlineto
            -37 -1 -29 -8 -8 -15 784 callsubr
            31 13 14 4 9 7 vhcurveto
            12 16 6 35 57 vvcurveto
            return
          </CharString>
          <CharString index="345">
            196 callsubr
            -16 -13 -29 hhcurveto
            -30 -20 15 32 return
          </CharString>
          <CharString index="346">
            589 callgsubr
            -82 20 -45 147 callsubr
            -42 57 -37 41 rrcurveto
            -1 7 return
          </CharString>
          <CharString index="347">
            240 rmoveto
            -30 -29 return
          </CharString>
          <CharString index="348">
            79 31 39 hhcurveto
            29 73 callsubr
            rrcurveto
            -95 71 84 -46 91 hhcurveto
            103 76 528 callgsubr
            return
          </CharString>
          <CharString index="349">
            54 578 57 hstem
            126 263 vstem
            126 635 rmoveto
            -57 263 57 vlineto
            endchar
          </CharString>
          <CharString index="350">
            10 289 callgsubr
          </CharString>
          <CharString index="351">
            12 callgsubr
            -36 -21 -37 -110 85 callgsubr
            -12 -1 -21 435 callgsubr
            return
          </CharString>
          <CharString index="352">
            344 callgsubr
            -54 372 callgsubr
            95 23 54 58 72 515 callsubr
            return
          </CharString>
          <CharString index="353">
            240 -26 callgsubr
            -11 14 vhcurveto
            return
          </CharString>
          <CharString index="354">
            -129 -110 51 69 -55 hvcurveto
            92 8 34 90 118 vvcurveto
            41 -6 39 -9 34 vhcurveto
            return
          </CharString>
          <CharString index="355">
            370 callsubr
            30 13 -18 -27 -67 -82 -36 -72 -17 -19 2 5 -14 hvcurveto
            31 -15 return
          </CharString>
          <CharString index="356">
            -40 22 -34 33 642 callsubr
            37 56 11 -58 -80 vhcurveto
            return
          </CharString>
          <CharString index="357">
            322 callsubr
            4 727 callsubr
            return
          </CharString>
          <CharString index="358">
            285 callsubr
            -39 return
          </CharString>
          <CharString index="359">
            0 44 399 46 178 46 hstem
            118 69 return
          </CharString>
          <CharString index="360">
            628 callgsubr
            764 callsubr
            40 return
          </CharString>
          <CharString index="361">
            88 rcurveline
            82 callgsubr
            return
          </CharString>
          <CharString index="362">
            -15 52 415 52 hstem
            39 74 282 74 vstem
            return
          </CharString>
          <CharString index="363">
            544 582 callgsubr
            return
          </CharString>
          <CharString index="364">
            -152 515 rlineto
            -59 hlineto
            -171 -512 rlineto
            return
          </CharString>
          <CharString index="365">
            29 17 callsubr
            return
          </CharString>
          <CharString index="366">
            0 -8 hhcurveto
            -155 -93 -70 -122 return
          </CharString>
          <CharString index="367">
            42 22 393 callgsubr
            return
          </CharString>
          <CharString index="368">
            79 68 200 64 133 61 hstem
            return
          </CharString>
          <CharString index="369">
            -142 hlineto
            354 callsubr
            return
          </CharString>
          <CharString index="370">
            rmoveto
            89 18 49 57 66 hhcurveto
            return
          </CharString>
          <CharString index="371">
            60 400 callsubr
            return
          </CharString>
          <CharString index="372">
            -45 66 -35 vhcurveto
            7 4 return
          </CharString>
          <CharString index="373">
            hlineto
            2 -19 -18 1 return
          </CharString>
          <CharString index="374">
            353 callsubr
            240 60 hstemhm
            21 67 25 67 hintmask 11010000
            324 -75 callsubr
            hintmask 11110000
            -143 hlineto
            -29 27 -44 48 65 vvcurveto
            56 return
          </CharString>
          <CharString index="375">
            334 callgsubr
            31 -25 63 -25 74 -4 return
          </CharString>
          <CharString index="376">
            vlineto
            -44 7 callgsubr
            return
          </CharString>
          <CharString index="377">
            -74 -48 -51 -60 -55 40 -60 72 -22 hvcurveto
            return
          </CharString>
          <CharString index="378">
            644 callsubr
            rlinecurve
            598 callsubr
            return
          </CharString>
          <CharString index="379">
            vhcurveto
            -2 192 callsubr
            return
          </CharString>
          <CharString index="380">
            hhcurveto
            -40 -59 22 72 77 58 33 return
          </CharString>
          <CharString index="381">
            rrcurveto
            17 22 10 27 31 vvcurveto
            37 return
          </CharString>
          <CharString index="382">
            -45 32 hvcurveto
            -136 hlineto
            378 callsubr
            -14 vhcurveto
            123 -532 hlineto
            -13 280 callsubr
            563 144 vlineto
            22 -103 callsubr
            -128 hlineto
            -15 return
          </CharString>
          <CharString index="383">
            327 callgsubr
            -257 -107 callgsubr
            190 hlineto
            325 callsubr
            -66 56 -52 77 -35 vhcurveto
            7 7 7 15 3 11 rrcurveto
            return
          </CharString>
          <CharString index="384">
            294 callsubr
            rrcurveto
            return
          </CharString>
          <CharString index="385">
            -20 290 callgsubr
            return
          </CharString>
          <CharString index="386">
            -28 -57 -47 -32 -56 return
          </CharString>
          <CharString index="387">
            33 -18 34 vhcurveto
            return
          </CharString>
          <CharString index="388">
            98 -54 58 -86 -66 -48 -34 -61 -66 55 -52 77 -35 vhcurveto
            8 7 7 15 3 11 rrcurveto
            -44 23 -40 34 53 vvcurveto
            34 17 23 36 58 11 -58 -87 vhcurveto
            return
          </CharString>
          <CharString index="389">
            556 callgsubr
            -1 19 16 10 vvcurveto
            1 return
          </CharString>
          <CharString index="390">
            -13 0 55.5 573 56.5 return
          </CharString>
          <CharString index="391">
            635 callsubr
            -19 hhcurveto
            -148 -91 -74 -117 return
          </CharString>
          <CharString index="392">
            139 callsubr
            -10 -10 vvcurveto
            return
          </CharString>
          <CharString index="393">
            22 -21 194 53 296 61 hstem
            77 67 202 67 return
          </CharString>
          <CharString index="394">
            -146 0 47 398.5 43.5 return
          </CharString>
          <CharString index="395">
            61 -41 55 hstemhm
            -3 58 -11 66 123 114 -76 60 return
          </CharString>
          <CharString index="396">
            -29 -11 -26 -49 -83 hhcurveto
            return
          </CharString>
          <CharString index="397">
            -37 -1 -29 -7 return
          </CharString>
          <CharString index="398">
            12 16 22 587 callsubr
            103 106 callgsubr
            -532 217 callsubr
            -94 hlineto
            1 -9 -126 0 -19 hhcurveto
            return
          </CharString>
          <CharString index="399">
            -20 21 -25 15 621 callgsubr
            -176 vlineto
            -13 32 -21 35 vhcurveto
            return
          </CharString>
          <CharString index="400">
            vvcurveto
            44 -24 35 -25 25 vhcurveto
            193 142 callsubr
            return
          </CharString>
          <CharString index="401">
            -25 188 callgsubr
            return
          </CharString>
          <CharString index="402">
            -21 -33 -34 hvcurveto
            -67 -121 359 callgsubr
            return
          </CharString>
          <CharString index="403">
            38 20 -6 12 hhcurveto
            10 1 23 22 16 vvcurveto
            return
          </CharString>
          <CharString index="404">
            535 callgsubr
            0 18 5 rlinecurve
            return
          </CharString>
          <CharString index="405">
            vlineto
            362 callsubr
            return
          </CharString>
          <CharString index="406">
            -19 50 147 hvcurveto
            115 return
          </CharString>
          <CharString index="407">
            5 -19 16 -25 14 -13 rlinecurve
            return
          </CharString>
          <CharString index="408">
            410 callsubr
            7 return
          </CharString>
          <CharString index="409">
            -90 422 callsubr
            return
          </CharString>
          <CharString index="410">
            544 rmoveto
            221 -234 hlineto
            -53 -33 -53 -35 -52 hhcurveto
            -64 -19 290 callgsubr
            288 121 430 callgsubr
            return
          </CharString>
          <CharString index="411">
            113 callsubr
            11 -49 37 63 vvcurveto
            53 36 41 callsubr
            return
          </CharString>
          <CharString index="412">
            59 336 callsubr
          </CharString>
          <CharString index="413">
            25 rmoveto
            -76 -49 39 59 63 56 25 60 20 hvcurveto
            14 5 15 5 13 4 rrcurveto
            74 -15 43 -36 -54 vvcurveto
            -69 -69 -46 -81 vhcurveto
            hintmask 11011000
            -105 return
          </CharString>
          <CharString index="414">
            167 callsubr
            hintmask 11110000
            88 callgsubr
            return
          </CharString>
          <CharString index="415">
            rmoveto
            31 23 23 31 31 -23 24 -31 -31 -23 -24 -31 -31 23 -23 31 hvcurveto
            return
          </CharString>
          <CharString index="416">
            -87 134 103 315 callgsubr
            -36 return
          </CharString>
          <CharString index="417">
            rmoveto
            19 -4 12 0 17 4 19 185 rcurveline
            -30 6 -27 -3 -24 -7 rrcurveto
            return
          </CharString>
          <CharString index="418">
            232 callgsubr
            44 2 return
          </CharString>
          <CharString index="419">
            67 vstem
            324 -75 callsubr
            return
          </CharString>
          <CharString index="420">
            -164 -120 rcurveline
            137 callgsubr
            261 return
          </CharString>
          <CharString index="421">
            7 2 22 734 callsubr
            -43 56 -68 107 83 vvcurveto
            return
          </CharString>
          <CharString index="422">
            522 callgsubr
            22 -5 return
          </CharString>
          <CharString index="423">
            6 564 callgsubr
            12 2 6 6 hvcurveto
            12 9 10 return
          </CharString>
          <CharString index="424">
            -38 255 callsubr
            return
          </CharString>
          <CharString index="425">
            178 callgsubr
            138 return
          </CharString>
          <CharString index="426">
            43 679 callgsubr
            return
          </CharString>
          <CharString index="427">
            74 62 95 49 264 61 -43 57 return
          </CharString>
          <CharString index="428">
            692 callgsubr
            17 17 28 hvcurveto
            return
          </CharString>
          <CharString index="429">
            vvcurveto
            -41 45 -58 22 -13 vhcurveto
            -2 return
          </CharString>
          <CharString index="430">
            hvcurveto
            139 32 63 76 84 vvcurveto
            return
          </CharString>
          <CharString index="431">
            175 126 128 186 return
          </CharString>
          <CharString index="432">
            -1 -6 -1 -7 -7 vvcurveto
            return
          </CharString>
          <CharString index="433">
            34 -17 -45 66 -82 hhcurveto
            return
          </CharString>
          <CharString index="434">
            22 23 29 28 -22 24 return
          </CharString>
          <CharString index="435">
            11 15 411 callgsubr
            return
          </CharString>
          <CharString index="436">
            700 callgsubr
            -46 return
          </CharString>
          <CharString index="437">
            -21 24 -6 rrcurveto
            return
          </CharString>
          <CharString index="438">
            -60 -82 -70 48 -56 39 -32 hvcurveto
            -138 -107 callgsubr
            hintmask 11010000
            -93 callgsubr
            vlineto
            return
          </CharString>
          <CharString index="439">
            285 rmoveto
            -216 259 rlineto
            216 hlineto
            -243 -39 rmoveto
            216 -258 rlineto
            -31 -34 -44 -22 -40 203 callgsubr
            return
          </CharString>
          <CharString index="440">
            410 rmoveto
            21 -30 -41 19 -53 hhcurveto
            -82 -85 -47 -101 -87 67 -84 114 47 34 14 21 29 hvcurveto
            -41 vlineto
            -22 -59 -63 -9 -61 hhcurveto
            return
          </CharString>
          <CharString index="441">
            -104 callgsubr
            -592 -107 callgsubr
            321 -108 hlineto
            1 -8 -9 259 callsubr
            return
          </CharString>
          <CharString index="442">
            63 57 44 82 58 30 -23 -28 -35 -25 -25 -40 -16 vhcurveto
            7 -21 20 -28 11 -9 rrcurveto
            46 783 callsubr
            return
          </CharString>
          <CharString index="443">
            42 22 28 36 hvcurveto
            475 callsubr
          </CharString>
          <CharString index="444">
            68 144 67 return
          </CharString>
          <CharString index="445">
            769 728 callsubr
            -56 58 126 300 callgsubr
            193 352 callsubr
            hintmask 1101111110000000
            return
          </CharString>
          <CharString index="446">
            -1 -4 0 -4 -4 vvcurveto
            -44 62 -53 17 -6 vhcurveto
            -1 5 316 callsubr
            42 1 32 rrcurveto
            return
          </CharString>
          <CharString index="447">
            -104 callgsubr
            -579 74 callgsubr
            -85 -79 -110 return
          </CharString>
          <CharString index="448">
            258 callgsubr
            467 callgsubr
            return
          </CharString>
          <CharString index="449">
            30 20 20 29 29 -20 21 -30 -29 -20 -21 -29 -29 20 -20 29 hvcurveto
            return
          </CharString>
          <CharString index="450">
            371 callgsubr
            13 15 44 40 10 return
          </CharString>
          <CharString index="451">
            -83 -226 60 319 46 258 47 return
          </CharString>
          <CharString index="452">
            -24 -24 -15 -31 -39 vvcurveto
            -91 79 -57 97 return
          </CharString>
          <CharString index="453">
            vvcurveto
            36 19 23 35 330 callgsubr
            return
          </CharString>
          <CharString index="454">
            45 -12 89 callgsubr
            return
          </CharString>
          <CharString index="455">
            -92 395 callsubr
            return
          </CharString>
          <CharString index="456">
            47 32 586 callgsubr
            return
          </CharString>
          <CharString index="457">
            266 callsubr
            -18 hhcurveto
            return
          </CharString>
          <CharString index="458">
            -68 callsubr
            rrcurveto
            return
          </CharString>
          <CharString index="459">
            588 callsubr
            235 53 return
          </CharString>
          <CharString index="460">
            -252 544 61 return
          </CharString>
          <CharString index="461">
            27 -33 -50 28 return
          </CharString>
          <CharString index="462">
            -77 callgsubr
            118 -193 hlineto
            -16 -37 -51 -2 -57 hhcurveto
            -33 -39 6 8 -31 hvcurveto
            59 40 27 41 54 vvcurveto
            return
          </CharString>
          <CharString index="463">
            hlineto
            367 callgsubr
          </CharString>
          <CharString index="464">
            -13 callsubr
            -67 return
          </CharString>
          <CharString index="465">
            158 21 -21 445 44 hstem
            4 696 vstem
            return
          </CharString>
          <CharString index="466">
            -37 -29 540 callgsubr
            -3 266 callgsubr
            return
          </CharString>
          <CharString index="467">
            290 callsubr
            -8 -16 return
          </CharString>
          <CharString index="468">
            477 callsubr
            9 -13 return
          </CharString>
          <CharString index="469">
            -145 -19 rlineto
            -13 -1 return
          </CharString>
          <CharString index="470">
            18 vhcurveto
            -7 -21 return
          </CharString>
          <CharString index="471">
            hlineto
            -12 -18 -7 -22 -24 vvcurveto
            -51 36 -53 92 -38 vhcurveto
            4 2 10 14 2 11 rrcurveto
            -64 43 -12 32 30 vvcurveto
            46 38 27 return
          </CharString>
          <CharString index="472">
            246 rmoveto
            -6 vlineto
            -194 -191 32 -30 244 202 4 18 0 7 -4 19 rlinecurve
            -244 202 -30 -30 rlineto
            return
          </CharString>
          <CharString index="473">
            -37 17 -20 16 34 vvcurveto
            32 19 24 37 58 10 -58 -83 vhcurveto
            -94 vlineto
            39 -22 -40 31 -50 hhcurveto
            -69 -45 -48 -49 -27 hvcurveto
            return
          </CharString>
          <CharString index="474">
            317 callgsubr
            92 71 38 return
          </CharString>
          <CharString index="475">
            hstem
            113 312 callsubr
            return
          </CharString>
          <CharString index="476">
            695 callsubr
            119 callsubr
            return
          </CharString>
          <CharString index="477">
            39 79 31 40 hhcurveto
            return
          </CharString>
          <CharString index="478">
            -47 -99 -91 78 -85 return
          </CharString>
          <CharString index="479">
            274 callgsubr
            -115 hlineto
            -82 24 -55 50 -30 vhcurveto
            hintmask 11100100
            -56 -24 -31 -46 -58 vvcurveto
            -98 87 -68 return
          </CharString>
          <CharString index="480">
            vvcurveto
            146 callgsubr
            vhcurveto
            -54 callsubr
            -50 81 38 2 return
          </CharString>
          <CharString index="481">
            -5 callsubr
            144 -75 callgsubr
            return
          </CharString>
          <CharString index="482">
            -14 33 -103 callgsubr
          </CharString>
          <CharString index="483">
            hstemhm
            46 77 -48 56 217 70 return
          </CharString>
          <CharString index="484">
            460 callsubr
            -42 return
          </CharString>
          <CharString index="485">
            -22 9 -26 11 return
          </CharString>
          <CharString index="486">
            541 callsubr
            612 callgsubr
            return
          </CharString>
          <CharString index="487">
            61 19 18 36 29 vvcurveto
            48 -44 29 -63 -61 -36 -26 -31 -2 vhcurveto
            -1 -18 12 -14 30 -1 rrcurveto
            27 1 15 27 return
          </CharString>
          <CharString index="488">
            hhcurveto
            -54 -24 44 108 hvcurveto
            214 -24 rmoveto
            -29 -7 -23 -12 -18 vhcurveto
            -168 198 rlineto
            187 hlineto
            67 hmoveto
            return
          </CharString>
          <CharString index="489">
            -2 vhcurveto
            10 -1 15 2 8 7 11 9 10 41 1 33 rrcurveto
            return
          </CharString>
          <CharString index="490">
            56 -37 42 rrcurveto
            -1 7 7 0 6 hhcurveto
            112 87 55 87 return
          </CharString>
          <CharString index="491">
            -14 13 -20 12 rrcurveto
            -57 -39 -60 -26 -68 hhcurveto
            -81 -52 46 73 return
          </CharString>
          <CharString index="492">
            -12 vhcurveto
            6 -24 16 -27 13 -11 rrcurveto
            57 23 return
          </CharString>
          <CharString index="493">
            -54 -23 53 -60 hhcurveto
            -45 -44 -34 -65 -13 hvcurveto
            return
          </CharString>
          <CharString index="494">
            72 578 callsubr
            return
          </CharString>
          <CharString index="495">
            131 57 26 117 61 500 callsubr
            return
          </CharString>
          <CharString index="496">
            38 rlineto
            22 -27 -35 13 -36 hhcurveto
            -55 return
          </CharString>
          <CharString index="497">
            402 rmoveto
            635 callgsubr
            return
          </CharString>
          <CharString index="498">
            -69 496 callgsubr
            return
          </CharString>
          <CharString index="499">
            hhcurveto
            -76 -18 480 callgsubr
            return
          </CharString>
          <CharString index="500">
            -7 439 callsubr
            return
          </CharString>
          <CharString index="501">
            7 1 8 5 4 4 rrcurveto
            return
          </CharString>
          <CharString index="502">
            -52 -111 -100 73 -93 return
          </CharString>
          <CharString index="503">
            64 0 47 184 50 return
          </CharString>
          <CharString index="504">
            -9 -18 -5 -19 -21 vvcurveto
            return
          </CharString>
          <CharString index="505">
            96 695 callgsubr
            return
          </CharString>
          <CharString index="506">
            -14 -27 477 callsubr
            return
          </CharString>
          <CharString index="507">
            -35 599 callgsubr
            return
          </CharString>
          <CharString index="508">
            95 -54 58 -86 vhcurveto
            return
          </CharString>
          <CharString index="509">
            14 10 13 rrcurveto
            return
          </CharString>
          <CharString index="510">
            61 90 61 hstemhm
            return
          </CharString>
          <CharString index="511">
            hvcurveto
            -287 186 rmoveto
            220 hlineto
            hintmask 01111111
            -236 vlineto
            -52 -33 -52 -34 -52 hhcurveto
            -64 -19 290 callgsubr
            return
          </CharString>
          <CharString index="512">
            10 1 2 9 hvcurveto
            55 -55 79 -112 33 604 callgsubr
            return
          </CharString>
          <CharString index="513">
            -52 -49 73 callgsubr
            53 return
          </CharString>
          <CharString index="514">
            -12 62 callsubr
            -22 41 -23 26 hvcurveto
            return
          </CharString>
          <CharString index="515">
            vhcurveto
            -4 6 6 -1 6 686 callgsubr
            15 13 41 2 33 rrcurveto
            1 18 19 0 21 hhcurveto
            return
          </CharString>
          <CharString index="516">
            -92 -24 -12 -17 -20 9 -25 rlinecurve
            15 -43 47 -42 22 -2 rrcurveto
            15 16 15 9 hvcurveto
            1 15 -10 48 -5 23 return
          </CharString>
          <CharString index="517">
            7 vhcurveto
            12 15 return
          </CharString>
          <CharString index="518">
            33 -18 35 vhcurveto
            return
          </CharString>
          <CharString index="519">
            21 -21 233 59 51 64 -56 55 138 758 callgsubr
            67 295 62 124 67 return
          </CharString>
          <CharString index="520">
            43 78 122 callsubr
            return
          </CharString>
          <CharString index="521">
            583 callsubr
            -46 648 callsubr
            return
          </CharString>
          <CharString index="522">
            hhcurveto
            12 15 749 callsubr
            return
          </CharString>
          <CharString index="523">
            299 rmoveto
            -34 -24 -52 -18 -36 -7 rrcurveto
            26 -18 -26 19 return
          </CharString>
          <CharString index="524">
            106 51 15 50 134 60 -57 264 callsubr
            return
          </CharString>
          <CharString index="525">
            rcurveline
            -24 -11 -18 -21 11 -26 15 -41 49 -44 23 -2 rrcurveto
            return
          </CharString>
          <CharString index="526">
            504 callgsubr
            3 return
          </CharString>
          <CharString index="527">
            79 58 43 70 49 return
          </CharString>
          <CharString index="528">
            hhcurveto
            -81 -76 45 93 return
          </CharString>
          <CharString index="529">
            -92 -52 -111 return
          </CharString>
          <CharString index="530">
            154 78 52 -51 56 258 59 -56 209 -61 61 hstemhm
            27 58 393 67 71 61 hintmask 10101111
            return
          </CharString>
          <CharString index="531">
            540 callsubr
            31 -124 45 -63 112 rrcurveto
            101 7 28 104 98 105 callgsubr
            return
          </CharString>
          <CharString index="532">
            274 callgsubr
            -191 hlineto
            -141 83 -64 96 104 54 74 116 vhcurveto
            206 return
          </CharString>
          <CharString index="533">
            rmoveto
            9 21 23 5 27 hhcurveto
            53 38 -20 -28 34 hvcurveto
            -118 vlineto
            -6 -8 -7 -7 -8 -8 rrcurveto
            -40 return
          </CharString>
          <CharString index="534">
            hhcurveto
            -49 -60 24 87 92 67 37 70 31 27 -6 -19 30 hvcurveto
            15 40 rlineto
            28 -30 -41 19 -55 hhcurveto
            return
          </CharString>
          <CharString index="535">
            768 callgsubr
            67 17 66 32 60 return
          </CharString>
          <CharString index="536">
            rmoveto
            154 -94 callsubr
            return
          </CharString>
          <CharString index="537">
            161 65 318 61 hstem
            315 56 return
          </CharString>
          <CharString index="538">
            216 61 -37 37 -37 51 hstemhm
            53 61 return
          </CharString>
          <CharString index="539">
            265 57 222 61 hstem
            118 66 return
          </CharString>
          <CharString index="540">
            88 91 47 40 8 -4 10 -9 6 hvcurveto
            return
          </CharString>
          <CharString index="541">
            -18 215 callgsubr
            return
          </CharString>
          <CharString index="542">
            55 37 35 54 1 hvcurveto
            51 -34 34 -55 return
          </CharString>
          <CharString index="543">
            25 -26 3 -164 -127 rcurveline
            6 -11 return
          </CharString>
          <CharString index="544">
            hlineto
            33 -20 callgsubr
            endchar
          </CharString>
          <CharString index="545">
            774 callsubr
            23 87 return
          </CharString>
          <CharString index="546">
            -8 762 callsubr
            return
          </CharString>
          <CharString index="547">
            vlineto
            -13 32 -19 35 vhcurveto
            return
          </CharString>
          <CharString index="548">
            20 21 29 29 -20 20 return
          </CharString>
          <CharString index="549">
            81 -79 29 rrcurveto
            endchar
          </CharString>
          <CharString index="550">
            -52 64 -3 63 -3 35 43 14 57 -31 10 rcurveline
            -8 -28 -23 -21 -34 1 rrcurveto
            hintmask 11011100
            -53 3 return
          </CharString>
          <CharString index="551">
            568 callgsubr
            50 40 -21 -25 30 hvcurveto
            return
          </CharString>
          <CharString index="552">
            367 callsubr
            69 51 38 -21 -27 33 hvcurveto
            return
          </CharString>
          <CharString index="553">
            2 170 -23 5 -29 -4 -20 -7 rlinecurve
            2 -164 -153 11 -7 -17 7 -35 11 -17 rlinecurve
            return
          </CharString>
          <CharString index="554">
            -70 callsubr
            33 -18 34 vhcurveto
            return
          </CharString>
          <CharString index="555">
            250 rmoveto
            -42 -32 -49 -27 -46 hhcurveto
            -39 -59 23 79 return
          </CharString>
          <CharString index="556">
            324 callsubr
            78 -29 74 -65 25 return
          </CharString>
          <CharString index="557">
            hlineto
            258 callsubr
            return
          </CharString>
          <CharString index="558">
            -106 18 71 -97 321 callsubr
            return
          </CharString>
          <CharString index="559">
            hhcurveto
            358 callgsubr
            return
          </CharString>
          <CharString index="560">
            -166 4 91 -75 100 hhcurveto
            71 52 36 37 37 hvcurveto
            return
          </CharString>
          <CharString index="561">
            -56 -37 -35 -54 -51 35 -34 54 return
          </CharString>
          <CharString index="562">
            18 392 callgsubr
            return
          </CharString>
          <CharString index="563">
            -138 2 68 -101 130 hhcurveto
            return
          </CharString>
          <CharString index="564">
            hstemhm
            325 58 -14 64 106 67 return
          </CharString>
          <CharString index="565">
            hlineto
            -11 -16 -7 -21 -27 vvcurveto
            return
          </CharString>
          <CharString index="566">
            rmoveto
            -53 -40 -56 -33 -53 hhcurveto
            return
          </CharString>
          <CharString index="567">
            7 441 callgsubr
            return
          </CharString>
          <CharString index="568">
            rmoveto
            627 callgsubr
            return
          </CharString>
          <CharString index="569">
            663 callgsubr
            113 67 return
          </CharString>
          <CharString index="570">
            rcurveline
            726 callgsubr
            return
          </CharString>
          <CharString index="571">
            30 400 callgsubr
            return
          </CharString>
          <CharString index="572">
            hlineto
            15 callgsubr
            return
          </CharString>
          <CharString index="573">
            8 698 callsubr
            return
          </CharString>
          <CharString index="574">
            -20 303 callgsubr
            return
          </CharString>
          <CharString index="575">
            22 hvcurveto
            -7 21 return
          </CharString>
          <CharString index="576">
            vstem
            127 84 rmoveto
            -13 -45 343 callsubr
            14 -40 46 -12 hvcurveto
            return
          </CharString>
          <CharString index="577">
            -47 -106 -32 -19 hhcurveto
            -18 -22 19 41 53 32 695 callsubr
            20 419 callsubr
            return
          </CharString>
          <CharString index="578">
            vvcurveto
            -40 46 -58 22 -13 755 callgsubr
            10 11 4 9 8 hvcurveto
            11 14 12 return
          </CharString>
          <CharString index="579">
            -107 callgsubr
            296 -90 757 callsubr
            -80 64 -74 63 hvcurveto
            return
          </CharString>
          <CharString index="580">
            vvcurveto
            40 -26 26 -33 17 vhcurveto
            -76 38 -199 20 -62 31 -34 18 -20 42 -9 22 -7 -2 return
          </CharString>
          <CharString index="581">
            60 130 -87 hvcurveto
            -13 -6 -14 -9 -7 -10 rrcurveto
            -86 44 114 -141 147 hhcurveto
            86 return
          </CharString>
          <CharString index="582">
            -140 -90 callsubr
          </CharString>
          <CharString index="583">
            -146 -105 callgsubr
          </CharString>
          <CharString index="584">
            -19 vhcurveto
            3 -9 return
          </CharString>
          <CharString index="585">
            67 145 67 return
          </CharString>
          <CharString index="586">
            hstem
            121 69 return
          </CharString>
          <CharString index="587">
            76 58 33 63 45 33 -12 -17 26 vhcurveto
            750 callsubr
            return
          </CharString>
          <CharString index="588">
            vvcurveto
            146 callgsubr
            vhcurveto
            -64 callsubr
            rrcurveto
            return
          </CharString>
          <CharString index="589">
            38 29 callgsubr
            return
          </CharString>
          <CharString index="590">
            -158 220 59 hstem
            48 292 vstem
            48 279 rmoveto
            -59 292 59 vlineto
            endchar
          </CharString>
          <CharString index="591">
            759 callsubr
            55 -69 109 81 vvcurveto
            76 return
          </CharString>
          <CharString index="592">
            -68 526 callsubr
            return
          </CharString>
          <CharString index="593">
            -41 3 20 -32 48 hhcurveto
            40 20 18 29 1 hvcurveto
            return
          </CharString>
          <CharString index="594">
            1 -13 -103 0 -15 hhcurveto
            -47 -47 -1 -2 -37 hvcurveto
            return
          </CharString>
          <CharString index="595">
            129 callsubr
            -42 28 -55 return
          </CharString>
          <CharString index="596">
            211 -55 callsubr
            return
          </CharString>
          <CharString index="597">
            48 hstem
            118 72 359 77 vstem
            return
          </CharString>
          <CharString index="598">
            55 -59 3 -46 2 -45 -32 -17 -63 return
          </CharString>
          <CharString index="599">
            vhcurveto
            6 5 7 15 5 12 rrcurveto
            58 return
          </CharString>
          <CharString index="600">
            -75 62 vhcurveto
            hintmask 10111101
            43 return
          </CharString>
          <CharString index="601">
            -32 158 callsubr
            return
          </CharString>
          <CharString index="602">
            14 -42 48 -45 22 -2 return
          </CharString>
          <CharString index="603">
            -45 -42 -21 -32 -35 return
          </CharString>
          <CharString index="604">
            -8 -10 -7 -12 rlinecurve
            return
          </CharString>
          <CharString index="605">
            19 41 53 31 18 return
          </CharString>
          <CharString index="606">
            30 540 callsubr
            return
          </CharString>
          <CharString index="607">
            58 94 61 hstemhm
            return
          </CharString>
          <CharString index="608">
            57 -10 54 hhcurveto
            return
          </CharString>
          <CharString index="609">
            61 -34 48 hstemhm
            return
          </CharString>
          <CharString index="610">
            62 87 61 hstemhm
            return
          </CharString>
          <CharString index="611">
            1 10 rlinecurve
            endchar
          </CharString>
          <CharString index="612">
            -6 -38 -36 -36 751 callsubr
            -7 47 -10 37 vhcurveto
            return
          </CharString>
          <CharString index="613">
            hlineto
            -1 -5 0 -6 -6 vvcurveto
            -48 34 -34 64 -24 vhcurveto
            9 5 8 13 4 9 rrcurveto
            return
          </CharString>
          <CharString index="614">
            711 callsubr
            35 76 hvcurveto
            34 hlineto
            -1 24 -8 return
          </CharString>
          <CharString index="615">
            62 68 -8 65 142 65 150 61 hstemhm
            356 57 206 337 callsubr
            return
          </CharString>
          <CharString index="616">
            79 68 -23 52 171 64 9 60 -60 185 -61 61 hstemhm
            42 64 637 57 return
          </CharString>
          <CharString index="617">
            -33 callgsubr
            12 return
          </CharString>
          <CharString index="618">
            rmoveto
            15 42 531 callgsubr
            -44 -37 -14 -12 37 -45 13 hvcurveto
            endchar
          </CharString>
          <CharString index="619">
            25 -3 vhcurveto
            52 return
          </CharString>
          <CharString index="620">
            -50 -47 -1 -3 -38 hvcurveto
            -48 -3 -30 -16 -29 vvcurveto
            -40 47 -57 20 -12 vhcurveto
            -2 return
          </CharString>
          <CharString index="621">
            -93 -79 -77 -67 -15 vhcurveto
            25 -20 -31 27 -23 hhcurveto
            -25 -38 -31 -26 -28 42 -31 return
          </CharString>
          <CharString index="622">
            776 callsubr
            153 callsubr
            return
          </CharString>
          <CharString index="623">
            18 -40 53 -39 22 -1 rrcurveto
            15 1 16 18 9 vvcurveto
            15 -15 49 -7 23 vhcurveto
            return
          </CharString>
          <CharString index="624">
            rmoveto
            -29 2 -39 1 -38 1 rrcurveto
            1 -38 -43 1 -37 hhcurveto
            242 224 vlineto
            return
          </CharString>
          <CharString index="625">
            -66 hhcurveto
            -50 -46 28 51 63 69 33 72 468 callsubr
            -18 501 callgsubr
            return
          </CharString>
          <CharString index="626">
            rmoveto
            -376 -217 7 -22 15 -23 15 -13 rlinecurve
            357 223 rlineto
            endchar
          </CharString>
          <CharString index="627">
            rmoveto
            -352 -201 7 -22 16 -23 15 -12 rlinecurve
            331 213 rlineto
            endchar
          </CharString>
          <CharString index="628">
            613 callsubr
            43 40 return
          </CharString>
          <CharString index="629">
            hvcurveto
            33 36 rlineto
            25 -27 -36 15 -39 hhcurveto
            -46 return
          </CharString>
          <CharString index="630">
            -116 50 -54 81 84 49 59 114 vhcurveto
            return
          </CharString>
          <CharString index="631">
            697 callgsubr
            47 25 -11 -15 23 hvcurveto
            return
          </CharString>
          <CharString index="632">
            rmoveto
            -251 hlineto
            394 callgsubr
            return
          </CharString>
          <CharString index="633">
            21 62 117 696 callgsubr
            89 61 return
          </CharString>
          <CharString index="634">
            61 hstem
            421 callgsubr
            return
          </CharString>
          <CharString index="635">
            9 23 21 23 27 -1 rrcurveto
            return
          </CharString>
          <CharString index="636">
            -45 -105 -123 115 -106 return
          </CharString>
          <CharString index="637">
            hstem
            640 callgsubr
            vstem
            return
          </CharString>
          <CharString index="638">
            92 71 38 68 51 39 -21 return
          </CharString>
          <CharString index="639">
            0 41 -8 47 37 flex1
            return
          </CharString>
          <CharString index="640">
            12 28 6 34 38 vvcurveto
            41 return
          </CharString>
          <CharString index="641">
            vlineto
            29 1 33 13 -1 hvcurveto
            return
          </CharString>
          <CharString index="642">
            -49 21 -43 21 8 28 23 return
          </CharString>
          <CharString index="643">
            hlineto
            21 -9 -95 callsubr
            return
          </CharString>
          <CharString index="644">
            hhcurveto
            -66 -85 -45 -105 return
          </CharString>
          <CharString index="645">
            61 hstemhm
            179 57 return
          </CharString>
          <CharString index="646">
            49.5 return
          </CharString>
          <CharString index="647">
            2 17 -136 return
          </CharString>
          <CharString index="648">
            -97 callgsubr
            -590 -107 callgsubr
            379 return
          </CharString>
          <CharString index="649">
            rmoveto
            29 441 callsubr
            -29 -29 -21 -20 -29 -29 21 -21 29 hvcurveto
            return
          </CharString>
          <CharString index="650">
            -125 57 -76 vhcurveto
            227 callsubr
            return
          </CharString>
          <CharString index="651">
            vhcurveto
            -2 5 6 -2 5 hhcurveto
            11 10 4 9 8 hvcurveto
            11 14 12 44 2 return
          </CharString>
          <CharString index="652">
            hlineto
            -5 -2 -17 -23 -4 257 callgsubr
            return
          </CharString>
          <CharString index="653">
            29 400 callgsubr
            349 callgsubr
            39 -1 35 hhcurveto
            return
          </CharString>
          <CharString index="654">
            rmoveto
            -12 -46 607 callsubr
            return
          </CharString>
          <CharString index="655">
            vhcurveto
            -221 hlineto
            12 callgsubr
            return
          </CharString>
          <CharString index="656">
            743 callgsubr
            39 10 640 callsubr
            return
          </CharString>
          <CharString index="657">
            255 callgsubr
            10 14 -40 46 -11 hvcurveto
            return
          </CharString>
          <CharString index="658">
            -22 12 -16 rrcurveto
            149 hlineto
            -30 -19 -24 -36 -44 vvcurveto
            -75 64 -85 119 return
          </CharString>
          <CharString index="659">
            -97 callgsubr
            -589 -107 callgsubr
            378 return
          </CharString>
          <CharString index="660">
            -31 -22 -23 -30 -31 22 -23 31 hvcurveto
            endchar
          </CharString>
          <CharString index="661">
            -13 -45 371 callgsubr
            13 return
          </CharString>
          <CharString index="662">
            15 43 628 callsubr
            return
          </CharString>
          <CharString index="663">
            -23 -12 -28 -34 vvcurveto
            -93 78 -55 return
          </CharString>
          <CharString index="664">
            4 rrcurveto
            32 -7 -29 57 -78 hhcurveto
            return
          </CharString>
          <CharString index="665">
            -19 vhcurveto
            -13 -20 647 callgsubr
            return
          </CharString>
          <CharString index="666">
            499 callgsubr
            -17 return
          </CharString>
          <CharString index="667">
            73 221 67 234 return
          </CharString>
          <CharString index="668">
            1 -37 -40 0 -37 hhcurveto
            return
          </CharString>
          <CharString index="669">
            2 79 -62 26 -81 32 return
          </CharString>
          <CharString index="670">
            -42 -22 -32 -35 return
          </CharString>
          <CharString index="671">
            15 -40 45 -12 return
          </CharString>
          <CharString index="672">
            85 -66 64 -83 return
          </CharString>
          <CharString index="673">
            -21 5 -25 hhcurveto
            return
          </CharString>
          <CharString index="674">
            -143 rmoveto
            560 callgsubr
            -159 117 rcurveline
            hintmask 1101111010000000
            return
          </CharString>
          <CharString index="675">
            122 63 55 158 callgsubr
            240 110 callsubr
            return
          </CharString>
          <CharString index="676">
            -17 23 -25 778 callsubr
            -13 -19 -33 -11 return
          </CharString>
          <CharString index="677">
            -11 -1 -22 435 callgsubr
            139 hhcurveto
            73 return
          </CharString>
          <CharString index="678">
            22 -21 121 63 197 64 -57 55 100 110 callsubr
            return
          </CharString>
          <CharString index="679">
            rrcurveto
            -43 14 43 -35 22 hhcurveto
            14 15 13 11 20 -9 28 -7 23 hvcurveto
            return
          </CharString>
          <CharString index="680">
            29 22 23 29 27 -22 25 -29 -29 -24 -25 -27 -29 24 -23 29 hvcurveto
            return
          </CharString>
          <CharString index="681">
            -28 595 callsubr
            return
          </CharString>
          <CharString index="682">
            679 callsubr
            -169 hlineto
            -135 58 -91 121 return
          </CharString>
          <CharString index="683">
            vlineto
            210 -66 callgsubr
            return
          </CharString>
          <CharString index="684">
            23 8 20 25 27 50 27 -51 64 hhcurveto
            return
          </CharString>
          <CharString index="685">
            -61 callsubr
            193 hlineto
            return
          </CharString>
          <CharString index="686">
            vmoveto
            -149 vlineto
            15 callgsubr
            -53 hhcurveto
            return
          </CharString>
          <CharString index="687">
            764 callgsubr
            -231 hlineto
            3 -56 return
          </CharString>
          <CharString index="688">
            616 callgsubr
            vhcurveto
            return
          </CharString>
          <CharString index="689">
            326 callsubr
            -66 -85 -45 -105 return
          </CharString>
          <CharString index="690">
            641 callgsubr
            -26 rlinecurve
            14 -42 48 return
          </CharString>
          <CharString index="691">
            479 callsubr
            vstem
            return
          </CharString>
          <CharString index="692">
            hvcurveto
            3 -23 12 -32 return
          </CharString>
          <CharString index="693">
            vvcurveto
            772 callsubr
            return
          </CharString>
          <CharString index="694">
            15 hvcurveto
            120 return
          </CharString>
          <CharString index="695">
            72 221 67 return
          </CharString>
          <CharString index="696">
            33 32 vvcurveto
            46 return
          </CharString>
          <CharString index="697">
            hlineto
            -86 -51 -32 -69 hvcurveto
            hintmask 11011110
            -79 63 493 callsubr
            return
          </CharString>
          <CharString index="698">
            vhcurveto
            -2 5 5 -2 737 callgsubr
            return
          </CharString>
          <CharString index="699">
            -1 -13 -14 -1 -14 hhcurveto
            -102 -64 62 87 639 callsubr
            hvcurveto
            return
          </CharString>
          <CharString index="700">
            hlineto
            -8 -16 -4 -18 -21 vvcurveto
            -100 86 -130 53 -70 vhcurveto
            8 2 return
          </CharString>
          <CharString index="701">
            7 1 8 5 4 557 callsubr
            -74 -48 -51 return
          </CharString>
          <CharString index="702">
            50 36 196 callsubr
            return
          </CharString>
          <CharString index="703">
            -40 9 -45 37 48 vvcurveto
            36 24 31 50 40 20 -18 -22 17 vhcurveto
            return
          </CharString>
          <CharString index="704">
            15 4 9 6 return
          </CharString>
          <CharString index="705">
            22 9 29 23 return
          </CharString>
          <CharString index="706">
            rrcurveto
            hintmask 0110101110000000
            -174 174 rlineto
            10 697 callgsubr
            return
          </CharString>
          <CharString index="707">
            -26 hhcurveto
            -63 -17 54 112 hvcurveto
            214 -38 rmoveto
            -29 -7 -23 return
          </CharString>
          <CharString index="708">
            773 callgsubr
            -68 -79 -63 -58 -49 -35 hvcurveto
            13 -22 13 -20 return
          </CharString>
          <CharString index="709">
            78 95 666 callgsubr
            return
          </CharString>
          <CharString index="710">
            -59 callsubr
            -54 -36 -37 -80 -22 vhcurveto
            -21 2 -22 0 return
          </CharString>
          <CharString index="711">
            hlineto
            649 callsubr
            return
          </CharString>
          <CharString index="712">
            228 62 98 797 callsubr
            53 65 -50 69 171 67 return
          </CharString>
          <CharString index="713">
            276 rmoveto
            25 -2 28 5 -1 hvcurveto
            -57 4 rlineto
            283 vlineto
            return
          </CharString>
          <CharString index="714">
            775 callsubr
            640 callsubr
            return
          </CharString>
          <CharString index="715">
            53.5 254.5 60.5 return
          </CharString>
          <CharString index="716">
            hvcurveto
            -49 -3 -30 -17 -28 vvcurveto
            -44 50 -58 15 -6 vhcurveto
            -4 6 return
          </CharString>
          <CharString index="717">
            240 116 -100 54 42 60 132 61 hstemhm
            175 57 return
          </CharString>
          <CharString index="718">
            -65 hvcurveto
            13 11 8 10 9 16 rrcurveto
            return
          </CharString>
          <CharString index="719">
            157 rlineto
            -157 vlineto
            111 hmoveto
            return
          </CharString>
          <CharString index="720">
            554 callsubr
            15 return
          </CharString>
          <CharString index="721">
            hvcurveto
            683 callgsubr
            return
          </CharString>
          <CharString index="722">
            hvcurveto
            377 callsubr
            return
          </CharString>
          <CharString index="723">
            -55 687 callgsubr
            return
          </CharString>
          <CharString index="724">
            vhcurveto
            7 2 17 10 6 10 rrcurveto
            60 return
          </CharString>
          <CharString index="725">
            111 -97 callgsubr
            return
          </CharString>
          <CharString index="726">
            92 71 38 69 51 443 callgsubr
            return
          </CharString>
          <CharString index="727">
            61 hstem
            643 callgsubr
            return
          </CharString>
          <CharString index="728">
            341 57 146 61 hstem
            return
          </CharString>
          <CharString index="729">
            59 400 46 119 -20 return
          </CharString>
          <CharString index="730">
            42 70 31 35 hhcurveto
            27 20 return
          </CharString>
          <CharString index="731">
            7 4 10 12 4 11 rrcurveto
            return
          </CharString>
          <CharString index="732">
            0 44 584 callsubr
            return
          </CharString>
          <CharString index="733">
            -18 5 -22 0 -21 -5 return
          </CharString>
          <CharString index="734">
            61 50 vvcurveto
            33 -21 21 return
          </CharString>
          <CharString index="735">
            40 639 callgsubr
            return
          </CharString>
          <CharString index="736" raw="1">
            f9911d95 0b  
          </CharString>
          <CharString index="737">
            65 78 -20 21 -20 hstemhm
            return
          </CharString>
          <CharString index="738">
            761 callsubr
            -70 return
          </CharString>
          <CharString index="739">
            69 254 63 -37 69 return
          </CharString>
          <CharString index="740">
            497 callgsubr
            82 return
          </CharString>
          <CharString index="741">
            76 49 26 125 vhcurveto
            return
          </CharString>
          <CharString index="742">
            -93 266 callsubr
            return
          </CharString>
          <CharString index="743">
            585 callsubr
            7 return
          </CharString>
          <CharString index="744">
            -11 14 -15 17 rrcurveto
            return
          </CharString>
          <CharString index="745">
            647 callgsubr
            -80 return
          </CharString>
          <CharString index="746">
            78 49 71 152 return
          </CharString>
          <CharString index="747">
            564 callsubr
            hvcurveto
            return
          </CharString>
          <CharString index="748">
            16 29 39 -40 16 return
          </CharString>
          <CharString index="749">
            47 vvcurveto
            36 19 23 return
          </CharString>
          <CharString index="750">
            34 -13 -17 26 hvcurveto
            return
          </CharString>
          <CharString index="751">
            -47 18 -41 26 -50 return
          </CharString>
          <CharString index="752">
            -15 rrcurveto
            51 37 return
          </CharString>
          <CharString index="753">
            62 87 61 hstem
            return
          </CharString>
          <CharString index="754">
            hvcurveto
            -13 -6 -15 return
          </CharString>
          <CharString index="755">
            487 callgsubr
            -5 23 return
          </CharString>
          <CharString index="756">
            -2 -8 -1 -8 -8 vvcurveto
            -43 27 265 callsubr
            return
          </CharString>
          <CharString index="757">
            241 59 244 502 callsubr
            51 66 122 66 return
          </CharString>
          <CharString index="758">
            -65 22 9 25 437 callgsubr
            return
          </CharString>
          <CharString index="759">
            306 62 176 61 hstem
            25 138 188 67 vstem
            return
          </CharString>
          <CharString index="760">
            53 41 -43 184 callsubr
            -4 -18 -1 -12 7 -13 return
          </CharString>
          <CharString index="761">
            -272 -7 rlineto
            263 vlineto
            193 -10 4 24 0 27 return
          </CharString>
          <CharString index="762">
            hhcurveto
            -56 -52 27 62 78 71 35 76 hvcurveto
            24 hlineto
            -2 25 return
          </CharString>
          <CharString index="763">
            16 182 50 312 61 hstem
            77 72 233 67 vstem
            return
          </CharString>
          <CharString index="764">
            122 63 359 502 callsubr
            59 598 callgsubr
            return
          </CharString>
          <CharString index="765">
            13 rlineto
            -245 vlineto
            -37 -2 -26 -1 4 -27 -1 -6 rlinecurve
            return
          </CharString>
          <CharString index="766">
            vvcurveto
            720 callsubr
          </CharString>
          <CharString index="767">
            2 6 7 hvcurveto
            return
          </CharString>
          <CharString index="768">
            14 -16 -29 -53 return
          </CharString>
          <CharString index="769">
            21 1 15 rrcurveto
            return
          </CharString>
          <CharString index="770">
            15 7 37 36 vvcurveto
            127 vlineto
            hintmask 1011101100000000
            -7 23 return
          </CharString>
          <CharString index="771">
            hhcurveto
            -134 -95 -38 -104 -98 82 -126 57 -76 hvcurveto
            return
          </CharString>
          <CharString index="772">
            14 4 10 410 callsubr
            6 35 36 vvcurveto
            256 return
          </CharString>
          <CharString index="773">
            -64 -111 hlineto
            -93 -47 -39 -60 -68 65 -68 59 hvcurveto
            return
          </CharString>
          <CharString index="774">
            -55 3 -22 55 -62 3 -46 2 -47 -32 -18 -63 rrcurveto
            return
          </CharString>
          <CharString index="775">
            -24 15 -27 13 -13 rrcurveto
            18 22 51 31 43 hhcurveto
            59 return
          </CharString>
          <CharString index="776">
            25 -8 -28 hvcurveto
            -1 -39 -50 -32 -90 -21 rrcurveto
            -106 18 return
          </CharString>
          <CharString index="777">
            -13 rrcurveto
            12 30 53 16 39 hhcurveto
            117 91 -184 return
          </CharString>
          <CharString index="778">
            hlineto
            250 -196 rmoveto
            207 196 -207 hlineto
            return
          </CharString>
          <CharString index="779">
            -301 vmoveto
            725 callgsubr
            -41 -61 23 87 return
          </CharString>
          <CharString index="780">
            hlineto
            189 callsubr
            return
          </CharString>
          <CharString index="781">
            127 61 144 callgsubr
            return
          </CharString>
          <CharString index="782">
            -57 47 -96 779 callsubr
            return
          </CharString>
          <CharString index="783">
            -28 25 -11 27 21 vvcurveto
            30 17 18 100 vhcurveto
            endchar
          </CharString>
          <CharString index="784">
            rmoveto
            2 callgsubr
            return
          </CharString>
          <CharString index="785">
            503 callgsubr
            32 -18 35 vhcurveto
            return
          </CharString>
          <CharString index="786">
            -107 callgsubr
            98 return
          </CharString>
          <CharString index="787">
            2 37 -49 callsubr
            return
          </CharString>
          <CharString index="788">
            202 264 callsubr
            return
          </CharString>
          <CharString index="789">
            hstemhm
            52 632 callsubr
            return
          </CharString>
          <CharString index="790">
            45 -58 23 -13 vhcurveto
            -2 4 6 return
          </CharString>
          <CharString index="791">
            -20 -97 callgsubr
            return
          </CharString>
          <CharString index="792">
            -60 -51 vvcurveto
            -32 21 -21 30 32 return
          </CharString>
          <CharString index="793">
            -10 -16 24 hvcurveto
            10 39 rlineto
            33 return
          </CharString>
          <CharString index="794">
            hlineto
            753 callgsubr
            return
          </CharString>
          <CharString index="795">
            52 rmoveto
            378 56 -378 hlineto
            return
          </CharString>
          <CharString index="796">
            31 39 729 callsubr
            return
          </CharString>
          <CharString index="797">
            rmoveto
            12 16 22 587 callsubr
            return
          </CharString>
          <CharString index="798">
            -12 37 -44 13 hvcurveto
            return
          </CharString>
          <CharString index="799">
            794 callsubr
            18 return
          </CharString>
          <CharString index="800">
            vhcurveto
            5 -18 -21 4 return
          </CharString>
          <CharString index="801">
            66 -39 53 -22 27 return
          </CharString>
          <CharString index="802">
            18 108 hvcurveto
            49 return
          </CharString>
          <CharString index="803">
            793 callgsubr
            hvcurveto
            return
          </CharString>
          <CharString index="804">
            -26 -35 -13 7 -20 return
          </CharString>
          <CharString index="805">
            7 10 -33 41 return
          </CharString>
          <CharString index="806">
            34 49 vvcurveto
            52 return
          </CharString>
          <CharString index="807">
            53 42 -43 -40 return
          </CharString>
          <CharString index="808">
            67 hintmask 11011000
            168 605 rmoveto
            hintmask 10111000
            -14 34 return
          </CharString>
          <CharString index="809">
            31 58 274 65 116 61 hstem
            240 64 return
          </CharString>
          <CharString index="810">
            10 -25 rlinecurve
            14 -43 48 -45 22 -1 15 -1 18 return
          </CharString>
          <CharString index="811">
            -305 -226 54 hstem
            -65 47 116 69 vstem
            return
          </CharString>
          <CharString index="812">
            19 -38 15 -50 -51 vvcurveto
            -23 -3 -34 -8 -26 vhcurveto
            return
          </CharString>
          <CharString index="813">
            12 745 callgsubr
            return
          </CharString>
          <CharString index="814">
            31 callsubr
            -49 -30 -35 -65 -22 vhcurveto
            return
          </CharString>
          <CharString index="815">
            9 524 callsubr
            return
          </CharString>
          <CharString index="816">
            -21 380 64 -55 53 -53 215 -61 61 hstemhm
            return
          </CharString>
          <CharString index="817">
            11 -13 24 2 5 5 12 9 25 45 15 19 return
          </CharString>
          <CharString index="818">
            581 callgsubr
            82 89 return
          </CharString>
          <CharString index="819">
            4 9 6 vhcurveto
            10 15 9 34 31 vvcurveto
            46 1 return
          </CharString>
          <CharString index="820">
            -21 -27 33 vhcurveto
            -557 -104 rmoveto
            -53 -40 -56 -33 return
          </CharString>
          <CharString index="821">
            -107 callgsubr
            379 -141 hlineto
            return
          </CharString>
          <CharString index="822">
            362 67 115 61 hstem
            37 68 67 126 return
          </CharString>
          <CharString index="823">
            118 56 203 61 106 61 hstem
            116 65 return
          </CharString>
          <CharString index="824">
            -33 -14 rcurveline
            12 -46 14 -41 29 -25 rrcurveto
            94 -81 return
          </CharString>
          <CharString index="825">
            397 callsubr
            -56 36 -59 78 -29 vhcurveto
            return
          </CharString>
          <CharString index="826">
            33 62 -2 26 hhcurveto
            13 16 23 14 hvcurveto
            endchar
          </CharString>
          <CharString index="827">
            78 -29 73 -64 25 vhcurveto
            endchar
          </CharString>
          <CharString index="828">
            403 callgsubr
            -12 39 return
          </CharString>
          <CharString index="829">
            354 callsubr
            -64 hhcurveto
            return
          </CharString>
          <CharString index="830">
            397 773 callsubr
            return
          </CharString>
          <CharString index="831">
            768 callsubr
            hhcurveto
            return
          </CharString>
          <CharString index="832">
            119 61 hstem
            36 68 return
          </CharString>
          <CharString index="833">
            hlineto
            -150 -88 -38 -107 return
          </CharString>
          <CharString index="834">
            6 354 callgsubr
            return
          </CharString>
          <CharString index="835">
            769 callgsubr
            60 return
          </CharString>
          <CharString index="836">
            hhcurveto
            30 661 callsubr
            return
          </CharString>
          <CharString index="837">
            -145 -16 rlineto
            -13 -1 return
          </CharString>
          <CharString index="838">
            544 61 216 62 return
          </CharString>
          <CharString index="839" raw="1">
            f8f11575 0b  
          </CharString>
          <CharString index="840">
            59 242 61 return
          </CharString>
          <CharString index="841">
            14 11 13 rrcurveto
            return
          </CharString>
          <CharString index="842">
            hvcurveto
            hintmask 1111111101100000
            37 19 -6 -1 9 hvcurveto
            13 return
          </CharString>
          <CharString index="843">
            hhcurveto
            73 44 763 callgsubr
            -23 27 hvcurveto
            return
          </CharString>
          <CharString index="844">
            hhcurveto
            -80 -79 48 92 105 70 49 123 hvcurveto
            return
          </CharString>
          <CharString index="845">
            hhcurveto
            -71 539 callgsubr
            140 32 62 return
          </CharString>
          <CharString index="846">
            hhcurveto
            54 80 callgsubr
            return
          </CharString>
          <CharString index="847">
            -47 -36 -59 -35 -56 495 callgsubr
            return
          </CharString>
          <CharString index="848">
            -33 27 -33 hvcurveto
            -1 -13 -14 -1 -14 hhcurveto
            -102 return
          </CharString>
          <CharString index="849">
            1 2 13 hvcurveto
            -5 0 -4 -5 vvcurveto
            -127 return
          </CharString>
          <CharString index="850">
            4 rlineto
            113 -28 -94 197 -129 hhcurveto
            return
          </CharString>
          <CharString index="851">
            856 rmoveto
            -7 11 -9 11 -13 6 -134 return
          </CharString>
          <CharString index="852">
            -78 -60 33 78 96 76 39 99 92 50 -32 return
          </CharString>
          <CharString index="853">
            -46 39 62 292 403 callsubr
            29 64 return
          </CharString>
          <CharString index="854">
            -24 15 558 callsubr
            -79 return
          </CharString>
          <CharString index="855">
            182 callsubr
            41 0 -1 37 hvcurveto
            return
          </CharString>
          <CharString index="856">
            4 10 6 hvcurveto
            10 182 callsubr
            return
          </CharString>
          <CharString index="857">
            211 181 -97 callgsubr
            return
          </CharString>
          <CharString index="858">
            6 -28 hflex1
            533 callsubr
            return
          </CharString>
          <CharString index="859">
            hvcurveto
            -244 -147 5 -19 return
          </CharString>
          <CharString index="860">
            -123 114 -106 88 -65 return
          </CharString>
          <CharString index="861">
            -15 51 -51 59 406 54 return
          </CharString>
          <CharString index="862">
            rmoveto
            -263 -57 263 hlineto
            return
          </CharString>
          <CharString index="863">
            167 0 47 267 49 return
          </CharString>
          <CharString index="864">
            735 callgsubr
            -47 -36 -64 return
          </CharString>
          <CharString index="865">
            -4 23 -52 64 -3 63 -3 return
          </CharString>
          <CharString index="866">
            402 callsubr
            -42 return
          </CharString>
          <CharString index="867">
            588 callgsubr
            vstem
            return
          </CharString>
          <CharString index="868">
            242 rmoveto
            -52 -39 return
          </CharString>
          <CharString index="869">
            -16 rrcurveto
            -3 -4 -2 return
          </CharString>
          <CharString index="870">
            20 24 5 27 hhcurveto
            return
          </CharString>
          <CharString index="871">
            38 -45 14 14 44 return
          </CharString>
          <CharString index="872">
            -10 14 -16 17 rrcurveto
            return
          </CharString>
          <CharString index="873">
            -89 -120 hlineto
            -89 return
          </CharString>
          <CharString index="874">
            58.5 return
          </CharString>
          <CharString index="875">
            404 callgsubr
            68 return
          </CharString>
          <CharString index="876">
            55 -92 106 -116 return
          </CharString>
          <CharString index="877">
            333 rmoveto
            -20 return
          </CharString>
          <CharString index="878">
            -38 hvcurveto
            12 -21 return
          </CharString>
          <CharString index="879">
            -40 65 -64 29 return
          </CharString>
          <CharString index="880">
            60 87 61 hstem
            return
          </CharString>
          <CharString index="881">
            -50 hhcurveto
            -40 -62 return
          </CharString>
          <CharString index="882">
            235 callgsubr
            15 44 40 10 return
          </CharString>
          <CharString index="883">
            vvcurveto
            44 -23 35 -26 25 vhcurveto
            194 hlineto
            return
          </CharString>
          <CharString index="884">
            387 690 callsubr
            return
          </CharString>
          <CharString index="885">
            -25 -52 378 callgsubr
            return
          </CharString>
          <CharString index="886">
            102 -50 81 38 2 29 15 21 23 rrcurveto
            return
          </CharString>
          <CharString index="887">
            79 59 43 69 50 40 -21 -25 30 vhcurveto
            return
          </CharString>
          <CharString index="888">
            438 rmoveto
            775 callgsubr
            -11 hhcurveto
            -72 return
          </CharString>
          <CharString index="889">
            -31 -52 15 -45 hhcurveto
            -89 422 callsubr
            return
          </CharString>
          <CharString index="890">
            17 32 45 46 vvcurveto
            57 -43 82 -115 return
          </CharString>
          <CharString index="891">
            rrcurveto
            -3 266 callgsubr
            -40 63 -64 return
          </CharString>
          <CharString index="892">
            620 rmoveto
            76 callsubr
            return
          </CharString>
          <CharString index="893">
            -17 32 34 -7 29 103 46 96 95 hhcurveto
            return
          </CharString>
          <CharString index="894">
            -18 -1 -12 7 121 callgsubr
            return
          </CharString>
          <CharString index="895">
            64 -57 56 -51 403 callsubr
            29 67 return
          </CharString>
          <CharString index="896">
            92 72 68 76 36 hvcurveto
            -18 15 -21 13 return
          </CharString>
          <CharString index="897">
            105 80 533 callgsubr
            10 return
          </CharString>
          <CharString index="898">
            -20 20 -23 13 rrcurveto
            -154 60 rmoveto
            -11 return
          </CharString>
          <CharString index="899">
            619 callsubr
            vhcurveto
            return
          </CharString>
          <CharString index="900">
            58 -37 75 -68 return
          </CharString>
          <CharString index="901">
            3 33 rrcurveto
            1 return
          </CharString>
          <CharString index="902">
            -2 6 hhcurveto
            10 return
          </CharString>
          <CharString index="903">
            60 87 61 hstemhm
            return
          </CharString>
          <CharString index="904">
            63 93 61 hstemhm
            return
          </CharString>
          <CharString index="905">
            37 56 63 return
          </CharString>
        <CharString name=".notdef">
          -28 0 52 556 -20 61 52 hstem
          4 55 400 55 vstem
          4 hmoveto
          510 701 -510 hlineto
          55 -52 rmoveto
          400 -597 -400 hlineto
          200 250 rmoveto
          105 -209 rlineto
          60 hlineto
          -135 254 135 261 rlineto
          -60 hlineto
          -100 -206 rlineto
          -4 hlineto
          -105 206 rlineto
          -60 hlineto
          134 -255 -134 -260 rlineto
          60 hlineto
          100 209 rlineto
          endchar
        </CharString>
        <CharString name="A">
          396 callsubr
          hstem
          11 588 vstem
          206 281 -97 callsubr
        </CharString>
        <CharString name="AE">
          319 0 47 -47 608 callsubr
          -56.5 49 265.5 52 hstemhm
          424 72 256.5 539 callsubr
          -29.5 539 callsubr
          hintmask 01011110
          288 361 rmoveto
          128 267 rlineto
          8 -267 hlineto
          hintmask 01101101
          344 -304 rmoveto
          654 callsubr
          -5 21 rlinecurve
          -192 -13 rlineto
          267 vlineto
          hintmask 10011110
          252 -5 9 -113 rlineto
          10 -1 35 -4 31 vvcurveto
          142 vlineto
          -413 -1 -308 -630 -39 -2 rlineto
          hintmask 01011110
          351 callsubr
          175 -57 callsubr
          hintmask 10011110
          -75 6 126 262 rlineto
          160 -264 hlineto
          -46 -2 rlineto
          hintmask 01011101
          351 callsubr
          475 136 hlineto
          33 -35 -5 -10 -1 vhcurveto
          endchar
        </CharString>
        <CharString name="Aacute">
          396 callsubr
          hstem
          11 588 vstem
          455 836 74 callsubr
          -51 -449 -97 callsubr
        </CharString>
        <CharString name="Abreve">
          396 callsubr
          454 630 callsubr
          11 588 hintmask 11110100
          428 878 rmoveto
          289 callsubr
          hintmask 11101100
          53 callsubr
          -256 -582 -97 callsubr
        </CharString>
        <CharString name="Acircumflex">
          396 callsubr
          527 65 hstem
          11 588 vstem
          307 583 callgsubr
          294 callgsubr
          -12 8 -9 13 -7 rlinecurve
          34 -439 -97 callsubr
        </CharString>
        <CharString name="Adieresis">
          396 callsubr
          470 104 hstem
          171 104 61 104 vstem
          387 751 rmoveto
          574 callgsubr
          -163 hmoveto
          573 callsubr
          -18 -470 -97 callsubr
        </CharString>
        <CharString name="Agrave">
          396 callsubr
          597 -20 hstem
          11 588 vstem
          238 878 3 callsubr
          -197 -470 -97 callsubr
        </CharString>
        <CharString name="Amacron">
          396 callsubr
          485 56 hstem
          175 263 vstem
          438 822 rmoveto
          -263 -56 263 hlineto
          -232 -485 -97 callsubr
        </CharString>
        <CharString name="Aogonek">
          64 -168 43 125 47 184 50 hstem
          439 59 vstem
          206 281 rmoveto
          92 313 90 -313 rlineto
          183 -281 rmoveto
          32 -4 34 10 -1 hvcurveto
          -65 6 -193 628 -23 3 -19 0 -23 -3 rlinecurve
          -193 -630 -40 -41 callgsubr
          175 152 callsubr
          53 181 rlineto
          212 hlineto
          53 -183 109 callgsubr
          113 hlineto
          -31 -22 -22 -30 -39 vvcurveto
          -49 40 -28 50 35 314 callgsubr
          -12 -16 -14 -29 hhcurveto
          -30 -20 16 32 34 22 25 40 18 hvcurveto
          endchar
        </CharString>
        <CharString name="Aring">
          396 callsubr
          450 42 90 42 hstem
          218 46 90 46 vstem
          309 863 rmoveto
          28 17 -17 -28 -28 -17 -17 -28 -28 -17 17 28 28 17 17 28 hvcurveto
          -2 -132 rmoveto
          435 callsubr
          454 callsubr
          vhcurveto
          -101 -450 -97 callsubr
        </CharString>
        <CharString name="Atilde">
          396 callsubr
          472 60 -10 63 hstemhm
          11 588 hintmask 11101000
          443 865 rmoveto
          -29 -7 -23 -23 -33 hhcurveto
          hintmask 11011000
          -53 -24 53 -59 hhcurveto
          -46 -43 -34 -65 -14 hvcurveto
          31 -11 rlineto
          23 8 19 24 27 50 27 -50 64 hhcurveto
          hintmask 11101000
          63 33 45 58 10 hvcurveto
          -267 -575 -97 callsubr
        </CharString>
        <CharString name="B">
          -2 0 48 282 44 257 48 500 callgsubr
          215 76 -42 75 hintmask 11110100
          191 49 rmoveto
          280 vlineto
          55 1 rlineto
          133 2 61 -36 -107 vvcurveto
          -85 -43 -58 -136 2 vhcurveto
          -21 586 rmoveto
          hintmask 11111000
          103 7 63 -40 -91 vvcurveto
          -86 -46 -50 -126 vhcurveto
          -43 257 1 hlineto
          -120 48 rmoveto
          -30 3 -35 -67 callgsubr
          331 callgsubr
          -4 -32 -2 2 -25 -1 -18 rlinecurve
          244 hlineto
          hintmask 11110100
          139 91 73 126 -1 hvcurveto
          94 -71 54 -73 13 vhcurveto
          hintmask 11111000
          65 27 46 49 78 vvcurveto
          87 -60 78 -141 vhcurveto
          endchar
        </CharString>
        <CharString name="C">
          52 callgsubr
          endchar
        </CharString>
        <CharString name="CR">
          -546 endchar
        </CharString>
        <CharString name="Cacute">
          52 callgsubr
          142 144 74 callsubr
          endchar
        </CharString>
        <CharString name="Ccaron">
          13 -15 61 592 54 192 -20 hstemhm
          39 77 346 63 -6 13 hintmask 11111000
          491 744 callsubr
          -87 rcurveline
          -134 87 315 callsubr
          21 1 19 4 rlinecurve
          hintmask 11110100
          159 -628 rmoveto
          53 callgsubr
          hintmask 11111000
          111 callgsubr
          -192 -109 -161 -216 5 vhcurveto
          -199 4 95 -131 184 hhcurveto
          hintmask 11110100
          128 82 65 35 8 -5 10 -8 4 hvcurveto
          endchar
        </CharString>
        <CharString name="Ccedilla">
          13 691 callgsubr
          27 61 592 54 hstemhm
          39 77 244 58 44 63 -6 13 hintmask 11111110
          287 -79 rmoveto
          61 12 -15 -20 -24 -17 -13 -29 0 callsubr
          hintmask 10111001
          7 28 rlineto
          115 6 73 60 33 vvcurveto
          8 -5 10 -8 4 vhcurveto
          53 callgsubr
          hintmask 10111010
          111 callgsubr
          -192 -109 -161 -216 5 vhcurveto
          4 -193 89 -128 172 -9 rrcurveto
          endchar
        </CharString>
        <CharString name="Ccircumflex">
          13 -15 61 592 54 116 65 0 -20 hstemhm
          39 77 346 63 -6 13 hintmask 11101010
          329 808 -81 callsubr
          324 -613 rmoveto
          53 callgsubr
          hintmask 11011100
          111 callgsubr
          -192 -109 -161 -216 5 vhcurveto
          -199 4 95 -131 184 hhcurveto
          hintmask 11011010
          128 82 65 35 hvcurveto
          hintmask 11101010
          8 -5 10 -8 4 vhcurveto
          endchar
        </CharString>
        <CharString name="Cdotaccent">
          13 -15 61 592 54 94 99 hstemhm
          39 77 163 99 84 63 -6 13 hintmask 11111100
          328 786 88 callsubr
          7 -94 rmoveto
          -192 -109 -161 -216 5 hvcurveto
          -199 4 95 -131 184 hhcurveto
          hintmask 11111010
          128 82 65 35 8 -5 10 -8 4 hvcurveto
          53 callgsubr
          hintmask 11111100
          111 callgsubr
          vhcurveto
          endchar
        </CharString>
        <CharString name="D">
          119 0 48 583 669 callgsubr
          581 47 callgsubr
          -579 66 callsubr
        </CharString>
        <CharString name="Dcaron">
          119 0 48 583 490 callsubr
          446 858 rmoveto
          -7 10 -9 11 -13 7 -134 -87 rcurveline
          -134 87 -13 -7 -8 -10 -7 -11 rlinecurve
          132 -121 22 -5 21 0 19 5 rlinecurve
          -125 -688 rmoveto
          581 47 callgsubr
          -579 66 callsubr
        </CharString>
        <CharString name="Dcroat">
          40 callsubr
        </CharString>
        <CharString name="E">
          -5 callgsubr
          260 callgsubr
          hintmask 01111100
          191 627 rmoveto
          -62 callsubr
          hintmask 10111100
          131 callsubr
          rlineto
          hintmask 01111010
          -62 callgsubr
          endchar
        </CharString>
        <CharString name="Eacute">
          -5 callgsubr
          260 callgsubr
          hintmask 01111100
          191 627 rmoveto
          -62 callsubr
          hintmask 10111100
          131 callsubr
          rlineto
          hintmask 01111010
          -62 callgsubr
          262 476 rmoveto
          -11 22 -26 436 callsubr
          8 -11 15 -7 rrcurveto
          endchar
        </CharString>
        <CharString name="Ebreve">
          -5 callgsubr
          58 65 78 -20 21 578 callgsubr
          hintmask 0111101110000000
          306 800 rmoveto
          53 callsubr
          hintmask 0111110110000000
          -34 15 rlineto
          hintmask 0111101110000000
          289 callsubr
          -115 -173 rmoveto
          -62 callsubr
          hintmask 1011101110000000
          131 callsubr
          rlineto
          hintmask 0111101101000000
          -62 callgsubr
          endchar
        </CharString>
        <CharString name="Ecaron">
          -5 callgsubr
          207 578 callgsubr
          hintmask 01111110
          467 305 callgsubr
          hintmask 01111101
          120 -678 413 callgsubr
          hintmask 10111110
          -62 callsubr
          -579 734 callgsubr
          hintmask 01111101
          520 callgsubr
        </CharString>
        <CharString name="Ecircumflex">
          -5 callgsubr
          131 65 0 578 callgsubr
          hintmask 0111101010000000
          305 583 callgsubr
          493 callgsubr
          -22 0 -21 -5 rlinecurve
          -132 -121 7 -12 8 -9 13 -7 rlinecurve
          285 -663 413 callgsubr
          hintmask 1011011100000000
          -62 callsubr
          -579 734 callgsubr
          hintmask 0111011010000000
          520 callgsubr
        </CharString>
        <CharString name="Edieresis">
          -5 callgsubr
          74 104 500 callgsubr
          -21 104 61 104 8 49 -35 49 hintmask 0111110010000000
          191 627 rmoveto
          -62 callsubr
          hintmask 1011110010000000
          131 callsubr
          rlineto
          hintmask 0111110001000000
          -62 callgsubr
          hintmask 0111101110000000
          32 391 rmoveto
          571 callgsubr
          163 hmoveto
          575 callgsubr
          endchar
        </CharString>
        <CharString name="Edotaccent">
          -5 callgsubr
          109 99 500 callgsubr
          64 99 93 49 -35 49 hintmask 0111110100000000
          191 627 rmoveto
          -62 callsubr
          hintmask 1011110100000000
          131 callsubr
          rlineto
          hintmask 0111111010000000
          -62 callgsubr
          114 426 rmoveto
          29 20 20 30 29 -20 20 -29 -29 -21 -20 -29 -30 21 -20 29 hvcurveto
          endchar
        </CharString>
        <CharString name="Egrave">
          -5 callgsubr
          201 578 callgsubr
          hintmask 01111110
          191 627 rmoveto
          -62 callsubr
          hintmask 10111110
          131 callsubr
          rlineto
          hintmask 01111101
          -62 callgsubr
          182 362 4 callsubr
        </CharString>
        <CharString name="Emacron">
          -5 callgsubr
          89 56 260 callgsubr
          hintmask 01111110
          191 627 rmoveto
          -62 callsubr
          hintmask 10111110
          131 callsubr
          rlineto
          hintmask 01111101
          -62 callgsubr
          -18 462 rmoveto
          -56 263 56 vlineto
          endchar
        </CharString>
        <CharString name="Eng">
          139 -179 55 124 566 callgsubr
          hstem
          119 55 183 48 124 54 vstem
          483 677 -31 callsubr
          33 -4 34 10 -1 hvcurveto
          -74 6 rlineto
          499 vlineto
          354 -544 rlineto
          -86 -1 -24 -43 -48 hhcurveto
          -34 -14 18 31 -2 hvcurveto
          -33 2 -15 759 callgsubr
          100 45 97 99 vhcurveto
          612 vlineto
          47 680 callsubr
          endchar
        </CharString>
        <CharString name="Eogonek">
          6 -161 44 117 263 callgsubr
          253 60 258 52.5 500 callgsubr
          230 59 -33 49 -35 49 hintmask 1011110010000000
          538 37 rmoveto
          -9 -3 -10 -3 -9 -4 rrcurveto
          109 vlineto
          33 -34 -5 -10 -1 vhcurveto
          -10 -106 427 callgsubr
          hintmask 1101110100000000
          -62 callsubr
          -579 734 callgsubr
          hintmask 1011111000000000
          234 callsubr
          423 hlineto
          -26 -21 -18 -28 -35 vvcurveto
          -49 39 -28 50 36 238 callsubr
          38 27 26 49 19 hvcurveto
          endchar
        </CharString>
        <CharString name="Eth">
          40 callsubr
        </CharString>
        <CharString name="Euro">
          -13 -16 50 188 49 51 50 201 49 hstemhm
          96 72 266 58 -8 11 hintmask 11111100
          365 222 rmoveto
          49 -196 vlineto
          -1 10 0 10 10 vvcurveto
          21 197 50 -193 vlineto
          124 16 59 77 81 hhcurveto
          65 41 -48 -70 hvcurveto
          32 2 26 14 40 vvcurveto
          62 -59 49 -92 -141 -79 -102 -148 -20 vhcurveto
          -63 -50 59 hlineto
          -1 -10 0 -9 -10 -7 0 -8 -7 vvcurveto
          -58 -49 62 hlineto
          -149 19 82 -89 124 hhcurveto
          hintmask 11111010
          93 77 50 39 9 -5 8 -6 4 hvcurveto
          -31 -34 -47 -29 -61 hhcurveto
          -96 -56 73 115 -17 hvcurveto
          endchar
        </CharString>
        <CharString name="F">
          -32 0 47 270.5 60 249 50.5 hstem
          119 73 253.5 539 callsubr
          vstem
          495 677 rmoveto
          -421 hlineto
          -33 -81 callgsubr
          210 -57 callsubr
          -87 6 rlineto
          273 vlineto
          192 -11 4 24 0 27 -4 21 rlinecurve
          -192 -13 rlineto
          256 vlineto
          248 -1 11 -109 rlineto
          10 -1 34 -4 31 vvcurveto
          endchar
        </CharString>
        <CharString name="G">
          491 callgsubr
          hstemhm
          39 76 371 67 -62 62 hintmask 11111000
          401 306 45 callsubr
          hintmask 11110100
          8 callsubr
          hintmask 11111000
          103 callgsubr
        </CharString>
        <CharString name="Gbreve">
          491 callgsubr
          41 630 callsubr
          39 76 371 67 -62 62 hintmask 1111101100000000
          446 878 rmoveto
          289 callsubr
          hintmask 1111011100000000
          -75 -36 50 29 -11 hvcurveto
          -34 -16 rlineto
          -58 8 48 -70 99 hhcurveto
          98 48 70 58 9 hvcurveto
          -79 -557 45 callsubr
          hintmask 1111011010000000
          8 callsubr
          hintmask 1111011100000000
          103 callgsubr
        </CharString>
        <CharString name="Gcircumflex">
          491 callgsubr
          114 65 0 -20 hstemhm
          39 76 371 67 -62 62 hintmask 11110110
          325 808 -81 callsubr
          210 -414 45 callsubr
          hintmask 11101101
          8 callsubr
          hintmask 11101110
          103 callgsubr
        </CharString>
        <CharString name="Gdotaccent">
          491 callgsubr
          92 99 hstemhm
          39 76 160 99 112 67 -62 62 hintmask 11111110
          324 786 88 callsubr
          77 -480 45 callsubr
          hintmask 11111101
          8 callsubr
          hintmask 11111110
          103 callgsubr
        </CharString>
        <CharString name="H">
          756 callsubr
          267 47 hstem
          119 72 331 73 vstem
          595 50 rmoveto
          579 vlineto
          45 -27 callsubr
          -194 hlineto
          -32 267 callgsubr
          72 -6 rlineto
          -264 -331 266 vlineto
          46 -27 callsubr
          -63 callgsubr
          264 331 -266 vlineto
          -45 -41 callgsubr
          194 144 callsubr
        </CharString>
        <CharString name="Hbar">
          756 callsubr
          96 50 121 47 hstem
          119 72 331 73 vstem
          191 363 rmoveto
          96 331 -96 vlineto
          73 -313 rmoveto
          409 64 50 -64 120 vlineto
          45 -27 callsubr
          -194 hlineto
          -32 267 callgsubr
          72 -6 rlineto
          -118 -331 120 vlineto
          46 -27 callsubr
          13 callgsubr
          -118 -68 -50 68 -411 vlineto
          109 callgsubr
          195 -57 callsubr
          -73 6 rlineto
          264 331 -266 vlineto
          -45 -41 callgsubr
          194 144 callsubr
        </CharString>
        <CharString name="Hcircumflex">
          756 callsubr
          267 47 131 65 hstem
          119 72 331 73 vstem
          360 808 -81 callsubr
          369 -670 rmoveto
          579 vlineto
          45 -27 callsubr
          -194 hlineto
          -32 267 callgsubr
          72 -6 rlineto
          -264 -331 266 vlineto
          46 -27 callsubr
          -63 callgsubr
          264 331 -266 vlineto
          -45 -41 callgsubr
          194 144 callsubr
        </CharString>
        <CharString name="I">
          301 callgsubr
          hstem
          119 72 vstem
          191 50 rmoveto
          -6 callgsubr
          195 144 callsubr
        </CharString>
        <CharString name="IJ">
          35 -112 55 57 566 callgsubr
          hstem
          119 72 46 49 107 76 vstem
          191 50 rmoveto
          -6 callgsubr
          195 hlineto
          32 -4 34 10 -1 hvcurveto
          77 635 rmoveto
          494 callsubr
          81 -6 -2 -557 rlineto
          -98 -19 -30 -39 -33 -14 19 31 -2 vhcurveto
          -33 2 -16 -20 -26 vvcurveto
          -34 36 -27 45 105 46 108 110 vhcurveto
          1 524 rlineto
          1 hlineto
          42 3 36 2 -6 34 504 callsubr
        </CharString>
        <CharString name="Iacute">
          301 callgsubr
          hstem
          119 72 vstem
          306 836 rmoveto
          -10 22 -27 436 callsubr
          9 -11 14 -7 rrcurveto
          129 -99 rmoveto
          631 callgsubr
          rrcurveto
          -63 callgsubr
          579 vlineto
          endchar
        </CharString>
        <CharString name="Ibreve">
          301 callgsubr
          58 630 callsubr
          119 72 hintmask 11101100
          237 631 rmoveto
          631 callgsubr
          rrcurveto
          -63 callgsubr
          579 vlineto
          hintmask 11110100
          89 249 rmoveto
          289 callsubr
          hintmask 11101100
          53 callsubr
          endchar
        </CharString>
        <CharString name="Icircumflex">
          301 callgsubr
          130 66 0 -20 500 callgsubr
          hintmask 11011000
          237 631 rmoveto
          631 callgsubr
          rrcurveto
          -63 callgsubr
          579 vlineto
          -1 240 rmoveto
          -19 5 -21 0 -22 -5 rrcurveto
          hintmask 11101000
          -132 -121 7 -12 8 -9 13 -7 rlinecurve
          134 87 134 -87 13 6 9 12 7 10 rlinecurve
          endchar
        </CharString>
        <CharString name="Idieresis">
          301 callgsubr
          74 104 hstemhm
          23 104 -8 72 -3 104 hintmask 11110000
          127 803 rmoveto
          27 -22 25 -29 559 callgsubr
          29 22 23 29 vhcurveto
          110 -172 rmoveto
          631 callgsubr
          rrcurveto
          hintmask 11001000
          -63 callgsubr
          579 vlineto
          hintmask 11100100
          48 226 rmoveto
          -28 -23 -25 -27 -29 23 -23 28 30 633 callgsubr
          -30 hvcurveto
          endchar
        </CharString>
        <CharString name="Idotaccent">
          301 callgsubr
          109 99 hstemhm
          109 99 -89 72 hintmask 11110000
          158 786 rmoveto
          29 21 20 30 29 -21 20 -29 -29 -20 -20 -29 -30 20 -20 29 hvcurveto
          hintmask 11101000
          33 -736 rmoveto
          -6 callgsubr
          195 144 callsubr
        </CharString>
        <CharString name="Igrave">
          301 callgsubr
          201 -20 hstem
          119 72 vstem
          90 878 3 callsubr
          -64 -701 rmoveto
          -6 callgsubr
          195 144 callsubr
        </CharString>
        <CharString name="Imacron">
          301 callgsubr
          89 56 hstem
          119 72 vstem
          237 631 rmoveto
          631 callgsubr
          rrcurveto
          -63 callgsubr
          579 vlineto
          -165 193 rmoveto
          -56 264 56 vlineto
          endchar
        </CharString>
        <CharString name="Iogonek">
          -236 -160 44 116 566 callgsubr
          500 callgsubr
          -22 59 hintmask 11110000
          287 38 rmoveto
          -7 -2 -8 -3 -7 -3 rrcurveto
          6 -1 5 3 vvcurveto
          -73 6 rlineto
          -6 callgsubr
          hintmask 11101000
          170 hlineto
          -26 -21 -17 -27 -34 vvcurveto
          -50 40 574 callsubr
          -17 -13 -28 hhcurveto
          -30 -21 15 32 38 28 27 49 18 hvcurveto
          endchar
        </CharString>
        <CharString name="Itilde">
          301 callgsubr
          76 60 -9 62 500 callgsubr
          hintmask 11101000
          237 631 rmoveto
          631 callgsubr
          rrcurveto
          -63 callgsubr
          579 vlineto
          103 236 rmoveto
          -29 -7 -22 -23 -33 hhcurveto
          hintmask 11011000
          386 callsubr
          30 -11 rlineto
          577 callsubr
          hintmask 11101000
          727 callgsubr
          endchar
        </CharString>
        <CharString name="J">
          -218 -62 55 637 47 hstem
          -11 49 108 72 vstem
          92 677 461 callsubr
          82 -6 rlineto
          -507 vlineto
          -98 -21 -29 -38 -34 -14 18 31 -1 vhcurveto
          -33 2 -16 759 callgsubr
          93 55 82 110 vhcurveto
          499 vlineto
          42 244 callgsubr
        </CharString>
        <CharString name="Jcircumflex">
          -218 -62 55 637 47 131 65 0 -20 hstemhm
          -11 49 108 72 hintmask 11011100
          146 627 rmoveto
          -507 vlineto
          -98 -21 -29 -38 -34 -14 18 31 -1 vhcurveto
          -33 2 -16 759 callgsubr
          93 55 82 110 vhcurveto
          499 vlineto
          42 -27 callsubr
          -199 hlineto
          627 callgsubr
          152 236 rmoveto
          626 callsubr
          rrcurveto
          hintmask 11101100
          -132 -121 6 -11 8 -10 14 -7 rlinecurve
          134 88 82 callgsubr
          endchar
        </CharString>
        <CharString name="K">
          55 0 44 -44 566 callgsubr
          500 callgsubr
          hintmask 01110000
          401 677 rmoveto
          276 callgsubr
          231 callsubr
          hintmask 10110000
          -61 6 573 callgsubr
          endchar
        </CharString>
        <CharString name="L">
          332 callgsubr
          451 55 rmoveto
          37 callgsubr
          hintmask 10111000
          -580 734 callgsubr
          hintmask 01111000
          69 callsubr
        </CharString>
        <CharString name="Lacute">
          332 callgsubr
          349 836 74 callsubr
          300 -675 rmoveto
          37 callgsubr
          hintmask 10111000
          -580 734 callgsubr
          hintmask 01111000
          69 callsubr
        </CharString>
        <CharString name="Lcaron">
          54 0 199 callgsubr
          65 9 500 callgsubr
          155 80 30.5 539 callsubr
          hintmask 01111110
          366 546 rmoveto
          42 46 21 70 -3 70 -10 22 -59 6 -19 -16 13 -43 -1 -89 -20 -48 rrcurveto
          -8 29 -15 7 5 vhcurveto
          85 -491 rmoveto
          37 callgsubr
          hintmask 10111110
          -580 734 callgsubr
          hintmask 01111110
          69 callsubr
        </CharString>
        <CharString name="Ldot">
          -19 0 47 -47 52.5 224.5 109 245.5 280 callgsubr
          500 callgsubr
          167 108 -9.5 539 callsubr
          hintmask 01111100
          412 277 308 callsubr
          hintmask 01011010
          39 -222 rmoveto
          37 callgsubr
          hintmask 10011010
          -580 734 callgsubr
          hintmask 01011010
          69 callsubr
        </CharString>
        <CharString name="Lslash">
          -11 0 199 callgsubr
          hstemhm
          126 72 265.5 539 callsubr
          hintmask 01111000
          458 55 rmoveto
          -260 -5 rlineto
          241 vlineto
          150 118 -32 40 -118 -93 rlineto
          274 vlineto
          50 3 36 2 -6 34 1 10 rlinecurve
          -199 hlineto
          -33 158 callsubr
          74 -6 rlineto
          -329 vlineto
          -96 -76 32 -39 64 50 rlineto
          hintmask 10111000
          -186 734 callgsubr
          hintmask 01111000
          69 callsubr
        </CharString>
        <CharString name="M">
          262 642 callgsubr
          hstem
          14 780 vstem
          727 52 rmoveto
          -45 576 70 6 rlineto
          10 1 4 35 -33 hhcurveto
          -124 hlineto
          -186 -454 -202 454 rlineto
          -119 hlineto
          454 callgsubr
          -46 -580 -45 -41 callgsubr
          181 202 callsubr
          -73 6 38 504 195 -434 13 -2 20 2 12 3 rlinecurve
          187 448 38 -523 -42 -2 -37 562 callgsubr
          186 202 callsubr
          endchar
        </CharString>
        <CharString name="N">
          139 0 566 callgsubr
          hstem
          119 55 355 54 vstem
          483 677 -76 callgsubr
        </CharString>
        <CharString name="NULL">
          -546 endchar
        </CharString>
        <CharString name="Nacute">
          139 0 566 callgsubr
          hstem
          119 55 355 54 vstem
          488 836 112 callgsubr
          14 -7 rrcurveto
          194 -53 -76 callgsubr
        </CharString>
        <CharString name="Ncaron">
          139 0 566 callgsubr
          207 -20 hstem
          119 55 355 54 vstem
          502 744 callsubr
          -88 rcurveline
          -134 88 522 callgsubr
          21 -5 22 1 18 4 rlinecurve
          113 -58 -76 callgsubr
        </CharString>
        <CharString name="Ntilde">
          139 0 566 callgsubr
          76 60 -10 63 hstemhm
          119 55 355 54 hintmask 11101100
          475 865 rmoveto
          -29 -7 -22 -23 -33 hhcurveto
          hintmask 11011100
          386 callsubr
          30 -11 rlineto
          702 callgsubr
          727 callgsubr
          -23 -179 -76 callgsubr
        </CharString>
        <CharString name="O">
          398 callsubr
          66 callgsubr
          endchar
        </CharString>
        <CharString name="OE">
          339 -15 53 -38 38 -38 608 callsubr
          258 52.5 -38 53 hstemhm
          39 76 329 72 257 49 -29 49 hintmask 0011101101000000
          842 hmoveto
          136 vlineto
          33 -34 -5 -10 -1 vhcurveto
          -10 -106 654 callsubr
          -4 21 rlinecurve
          -193 -13 rlineto
          267 vlineto
          hintmask 0011101110000000
          252 -5 10 -113 rlineto
          10 -1 34 -4 31 vvcurveto
          142 -376 vlineto
          hintmask 1001011110000000
          10 -34 -34 5 -31 hhcurveto
          -204 -109 -159 -220 5 hvcurveto
          -202 4 103 -128 170 hhcurveto
          hintmask 0011101110000000
          39 34 5 10 31 hvcurveto
          hintmask 0101011110000000
          -305 336 rmoveto
          178 65 126 154 1 vhcurveto
          44 37 -10 -18 29 hvcurveto
          -544 vlineto
          -20 -30 -36 -11 -46 hhcurveto
          -161 -56 130 168 hvcurveto
          endchar
        </CharString>
        <CharString name="Oacute">
          398 callsubr
          66 callgsubr
          162 197 112 callgsubr
          14 -7 rrcurveto
          endchar
        </CharString>
        <CharString name="Obreve">
          398 callsubr
          43 630 callsubr
          640 callgsubr
          hintmask 11101110
          336 800 rmoveto
          53 callsubr
          hintmask 11110110
          -34 15 rlineto
          hintmask 11101110
          289 callsubr
          -3 -108 -89 callgsubr
          endchar
        </CharString>
        <CharString name="Ocircumflex">
          398 callsubr
          115 66 530 callsubr
          335 807 rmoveto
          134 -87 13 6 8 12 493 callgsubr
          -21 0 -22 -5 rlinecurve
          -132 -121 7 -12 8 -9 13 -7 rlinecurve
          119 -682 rmoveto
          -147 -59 129 169 169 callgsubr
          hvcurveto
          148 1 61 -130 -174 vvcurveto
          -174 -66 -123 -145 -1 vhcurveto
          284 318 rmoveto
          271 -4 -150 65 -116 hhcurveto
          -191 -107 -154 -223 4 hvcurveto
          -204 4 98 -126 163 hhcurveto
          200 101 153 218 -2 hvcurveto
          endchar
        </CharString>
        <CharString name="Odieresis">
          398 callsubr
          59 104 hstem
          39 74 86 104 61 104 62 -24 callgsubr
          -69 112 rmoveto
          29 22 23 29 27 -22 25 -29 559 callgsubr
          hvcurveto
          163 hmoveto
          31 22 23 29 27 -22 25 -31 -28 -23 -25 -27 -29 23 -23 28 hvcurveto
          endchar
        </CharString>
        <CharString name="Ograve">
          398 callsubr
          186 -20 530 callsubr
          321 639 rmoveto
          148 1 61 -130 -174 vvcurveto
          -174 -66 -123 -145 -1 vhcurveto
          -147 -59 129 169 169 callgsubr
          hvcurveto
          12 53 rmoveto
          -191 -107 -154 -223 4 hvcurveto
          -204 4 98 -126 163 hhcurveto
          200 101 153 218 -2 hvcurveto
          271 -4 -150 65 -116 hhcurveto
          69 30 4 callsubr
        </CharString>
        <CharString name="Ohungarumlaut">
          398 callsubr
          530 callsubr
          603 798 -91 callgsubr
          20 107 -91 callgsubr
          108 1 -89 callgsubr
          endchar
        </CharString>
        <CharString name="Omacron">
          398 callsubr
          74 56 66 callgsubr
          -119 183 rmoveto
          -56 264 56 vlineto
          endchar
        </CharString>
        <CharString name="Oslash">
          138 695 callgsubr
          530 callsubr
          495 527 rmoveto
          24 -51 11 -66 -74 vvcurveto
          -174 -66 -123 -145 -1 vhcurveto
          -37 -32 8 15 -26 hvcurveto
          -47 40 rmoveto
          -44 54 -20 84 97 vvcurveto
          169 callgsubr
          vhcurveto
          59 45 -20 -36 33 hvcurveto
          117 82 rmoveto
          -53 27 -30 -51 rlineto
          38 -49 -58 13 -52 hhcurveto
          -191 -107 -154 -223 4 hvcurveto
          2 -123 37 -95 65 -56 -17 -28 rcurveline
          53 -29 14 24 rlineto
          -15 33 37 -8 41 hhcurveto
          200 101 153 218 -2 hvcurveto
          -2 112 -26 77 -40 52 rrcurveto
          endchar
        </CharString>
        <CharString name="Otilde">
          398 callsubr
          61 60 -10 63 hstemhm
          640 callgsubr
          hintmask 11101100
          -63 callsubr
          hintmask 11011100
          -122 117 rmoveto
          702 callgsubr
          63 33 45 58 10 hvcurveto
          -30 9 rlineto
          -29 -7 -23 -23 -33 hhcurveto
          hintmask 11011100
          -54 -23 53 -60 hhcurveto
          -45 -43 -34 -65 -14 hvcurveto
          endchar
        </CharString>
        <CharString name="P">
          5 0 47 225 47 313 47 hstem
          119 72 263 77 vstem
          245 634 rmoveto
          144 9 65 -55 -110 vvcurveto
          -107 -66 -52 -140 -17 -20 0 2 -20 vhcurveto
          310 vlineto
          -119 48 rmoveto
          -28 1 -30 -14 -44 callgsubr
          -581 vlineto
          109 callgsubr
          197 202 callsubr
          -76 6 rlineto
          225 vlineto
          -2 22 24 -1 20 hhcurveto
          155 119 58 160 106 -77 83 -172 hvcurveto
          endchar
        </CharString>
        <CharString name="Q">
          109 -141 65 66 48 601 53 530 callsubr
          113 336 rmoveto
          169 callgsubr
          vhcurveto
          148 1 61 -130 -174 vvcurveto
          -174 -66 -123 -145 -1 vhcurveto
          -147 -59 129 169 hvcurveto
          494 -396 rmoveto
          -11 -17 -18 -5 -15 hhcurveto
          -41 -75 28 38 -77 hvcurveto
          160 28 81 143 -2 195 rrcurveto
          271 -4 -150 65 -116 hhcurveto
          -191 -107 -154 -223 4 hvcurveto
          4 -192 87 -123 146 -14 rrcurveto
          -48 79 106 -79 89 hhcurveto
          38 27 21 34 11 -3 9 -5 6 hvcurveto
          endchar
        </CharString>
        <CharString name="R">
          31 -15 453 callgsubr
          243 76 hintmask 01111100
          191 631 -54 callgsubr
          hintmask 10111100
          40 callgsubr
        </CharString>
        <CharString name="Racute">
          31 -15 453 callgsubr
          243 76 hintmask 01111100
          418 836 rmoveto
          -11 22 -26 436 callsubr
          8 -11 15 -7 rrcurveto
          -29 -99 -54 callgsubr
          hintmask 10111100
          40 callgsubr
        </CharString>
        <CharString name="Rcaron">
          31 -15 60 -45 47 266 47 271 48 205 -20 500 callgsubr
          243 76 hintmask 01111110
          432 305 callgsubr
          -110 -104 -54 callgsubr
          hintmask 10111110
          40 callgsubr
        </CharString>
        <CharString name="S">
          39 callsubr
          endchar
        </CharString>
        <CharString name="Sacute">
          39 callsubr
          146 144 74 callsubr
          endchar
        </CharString>
        <CharString name="Scaron">
          -50 -15 55 597 55 192 -20 682 callsubr
          hintmask 11111000
          419 856 rmoveto
          -7 11 -9 11 -12 6 -134 -87 rcurveline
          -135 87 315 callsubr
          21 1 19 4 rlinecurve
          hintmask 11110100
          -2 -347 rmoveto
          228 callgsubr
          hintmask 11111000
          59 callsubr
          hintmask 11110100
          23 callgsubr
          101 -73 36 -111 48 hvcurveto
          endchar
        </CharString>
        <CharString name="Scircumflex">
          -50 -15 55 597 55 116 65 0 -20 682 callsubr
          hintmask 11101010
          257 808 -81 callsubr
          163 -332 rmoveto
          228 callgsubr
          hintmask 11011100
          59 callsubr
          hintmask 11011010
          23 callgsubr
          hvcurveto
          hintmask 11101010
          101 -73 36 -111 48 vhcurveto
          endchar
        </CharString>
        <CharString name="T">
          57 0 47 579 51 208 callsubr
          20 677 225 callsubr
          -32 callgsubr
        </CharString>
        <CharString name="Tbar">
          57 0 47 579 51 89 57 208 callsubr
          437 823 755 callsubr
          -417 -89 225 callsubr
          -32 callgsubr
        </CharString>
        <CharString name="Tcaron">
          57 0 47 579 51 207 -20 208 callsubr
          467 856 248 callgsubr
          297 callsubr
          -316 -58 225 callsubr
          -32 callgsubr
        </CharString>
        <CharString name="Thorn">
          54 0 47 99 46 312 45 82.5 280 callgsubr
          hstem
          119 72 261 80 vstem
          241 504 rmoveto
          144 67 -46 -110 -105 -66 -51 -142 hvcurveto
          -13 -21 1 -19 hhcurveto
          311 vlineto
          45 vmoveto
          81 vlineto
          46 3 36 2 -6 34 1 10 rlinecurve
          -195 hlineto
          -32 4 -35 -67 callgsubr
          -580 vlineto
          109 callgsubr
          195 -57 callsubr
          -73 6 rlineto
          97 vlineto
          -1 21 27 0 16 hhcurveto
          159 118 56 157 107 -77 83 -177 hvcurveto
          endchar
        </CharString>
        <CharString name="U">
          360 callgsubr
          hstem
          96 71 328 54 vstem
          450 677 -96 callgsubr
          endchar
        </CharString>
        <CharString name="Uacute">
          360 callgsubr
          hstem
          96 71 328 54 vstem
          450 677 -96 callgsubr
          -150 159 74 callsubr
          endchar
        </CharString>
        <CharString name="Ubreve">
          360 callgsubr
          58 630 callsubr
          96 71 328 54 hintmask 11101110
          327 800 rmoveto
          53 callsubr
          hintmask 11110110
          -34 15 rlineto
          hintmask 11101110
          289 callsubr
          123 -123 -96 callgsubr
          endchar
        </CharString>
        <CharString name="Ucircumflex">
          360 callgsubr
          131 65 hstem
          96 71 328 54 vstem
          326 583 callgsubr
          294 callgsubr
          -12 8 -9 13 -7 rlinecurve
          259 -43 -96 callgsubr
          endchar
        </CharString>
        <CharString name="Udieresis">
          360 callgsubr
          74 104 hstemhm
          96 71 23 104 61 104 36 54 hintmask 11010010
          450 677 -96 callgsubr
          hintmask 11111110
          -381 74 rmoveto
          573 callsubr
          163 hmoveto
          574 callgsubr
          endchar
        </CharString>
        <CharString name="Ugrave">
          360 callgsubr
          201 -20 hstem
          96 71 328 54 vstem
          450 677 -96 callgsubr
          -231 45 4 callsubr
        </CharString>
        <CharString name="Uhungarumlaut">
          360 callgsubr
          hstem
          96 71 328 54 vstem
          594 798 -91 callgsubr
          20 107 -91 callgsubr
          234 -14 -96 callgsubr
          endchar
        </CharString>
        <CharString name="Umacron">
          360 callgsubr
          89 56 hstemhm
          96 71 27 51 250 54 hintmask 11110100
          450 677 rmoveto
          25 callgsubr
          -385 vlineto
          -142 -66 -63 -108 -95 -59 59 149 vhcurveto
          1 384 rlineto
          hintmask 11111100
          45 680 callsubr
          hintmask 11110100
          16 callsubr
          -154 57 -102 159 168 69 106 163 662 callgsubr
          44 -27 callsubr
          hintmask 11111100
          -430 145 rmoveto
          -56 263 56 vlineto
          endchar
        </CharString>
        <CharString name="Uogonek">
          100 -177 43 119 52 593 47 hstem
          96 71 96 59 173 54 vstem
          450 677 -88 callsubr
          -153 56 -101 156 -2 vhcurveto
          -26 -21 -19 -29 -35 vvcurveto
          -49 40 -28 50 35 314 callgsubr
          -11 -17 -14 -28 hhcurveto
          -30 -21 15 33 37 26 25 45 19 hvcurveto
          109 30 47 95 134 vvcurveto
          375 vlineto
          44 244 callgsubr
        </CharString>
        <CharString name="Uring">
          360 callgsubr
          54 42 90 42 hstem
          96 71 70 46 90 46 76 54 vstem
          450 677 -96 callgsubr
          -294 228 rmoveto
          454 callsubr
          435 callsubr
          vhcurveto
          -2 -42 rmoveto
          28 17 -17 -28 -28 -17 -17 -28 -28 -17 17 28 28 17 17 28 hvcurveto
          endchar
        </CharString>
        <CharString name="Utilde">
          360 callgsubr
          76 60 -9 62 hstemhm
          96 71 328 54 hintmask 11011100
          190 756 rmoveto
          577 callsubr
          hintmask 11101100
          727 callgsubr
          -31 9 rlineto
          -29 -7 -22 -23 -33 hhcurveto
          hintmask 11011100
          386 callsubr
          290 -90 -96 callgsubr
          endchar
        </CharString>
        <CharString name="V">
          68 21 -21 630 47 hstem
          4 605 vstem
          454 677 rmoveto
          -32 267 callgsubr
          72 -6 -186 -531 -173 533 rlineto
          1 hlineto
          46 -27 callsubr
          -185 hlineto
          627 callgsubr
          56 -6 213 -627 rlineto
          55 hlineto
          229 629 20 2 36 5 -6 31 504 callsubr
        </CharString>
        <CharString name="W">
          391 callgsubr
          hstemhm
          4 937 hintmask 10110000
          784 677 200 callsubr
          hintmask 11110000
          257 callsubr
          hintmask 10110000
          -56 callgsubr
        </CharString>
        <CharString name="Wacute">
          391 callgsubr
          hstemhm
          4 937 hintmask 10110000
          637 837 -91 callgsubr
          346 -53 200 callsubr
          hintmask 11110000
          257 callsubr
          hintmask 10110000
          -56 callgsubr
        </CharString>
        <CharString name="Wcircumflex">
          391 callgsubr
          131 65 0 -20 hstemhm
          4 937 hintmask 10110100
          489 808 -81 callsubr
          429 -43 200 callsubr
          hintmask 11101100
          257 callsubr
          hintmask 10101100
          -56 callgsubr
        </CharString>
        <CharString name="Wdieresis">
          391 callgsubr
          74 104 hstemhm
          354 103 62 103 hintmask 10111100
          570 751 -14 callsubr
          378 -74 200 callsubr
          hintmask 11111100
          257 callsubr
          hintmask 10111100
          -56 callgsubr
        </CharString>
        <CharString name="Wgrave">
          391 callgsubr
          201 -20 hstemhm
          4 937 hintmask 10111000
          420 878 3 callsubr
          199 -74 200 callsubr
          hintmask 11111000
          257 callsubr
          hintmask 10111000
          -56 callgsubr
        </CharString>
        <CharString name="X">
          77 642 callgsubr
          hstem
          12 601 vstem
          554 50 rmoveto
          -202 297 184 284 rlineto
          6 hlineto
          22 680 callsubr
          -164 hlineto
          494 callsubr
          62 -6 -145 -237 -162 239 34 3 -4 callsubr
          -182 hlineto
          -33 158 callsubr
          58 -6 200 -295 -196 -285 -34 -41 callgsubr
          171 202 callsubr
          -63 6 rlineto
          -1 hlineto
          156 239 163 -241 rlineto
          -1 hlineto
          -30 -2 -36 -3 5 -33 -1 -10 rlinecurve
          181 202 callsubr
          endchar
        </CharString>
        <CharString name="Y">
          46 642 callgsubr
          hstem
          262 74 vstem
          431 679 -69 callgsubr
        </CharString>
        <CharString name="Yacute">
          46 642 callgsubr
          hstem
          262 74 vstem
          454 836 rmoveto
          -10 22 -27 436 callsubr
          9 -11 14 -7 rrcurveto
          175 -51 -69 callgsubr
        </CharString>
        <CharString name="Ycircumflex">
          46 642 callgsubr
          129 65 hstem
          262 74 vstem
          306 808 -81 callsubr
          259 -41 -69 callgsubr
        </CharString>
        <CharString name="Ydieresis">
          46 642 callgsubr
          72 104 hstemhm
          171 104 -13 74 0 104 hintmask 11110100
          387 751 rmoveto
          575 callgsubr
          -163 hmoveto
          571 callgsubr
          207 -72 rmoveto
          454 callgsubr
          -162 -299 -168 301 45 3 36 2 -6 34 1 10 rlinecurve
          -187 hlineto
          -33 158 callsubr
          56 -6 rlineto
          1 hlineto
          hintmask 11001000
          200 -354 rlineto
          -226 vlineto
          -45 -2 -37 562 callgsubr
          197 -57 callsubr
          -73 6 rlineto
          226 vlineto
          199 354 21 3 36 5 -6 31 504 callsubr
        </CharString>
        <CharString name="Ygrave">
          46 642 callgsubr
          199 -20 hstem
          262 74 vstem
          238 878 3 callsubr
          28 -72 -69 callgsubr
        </CharString>
        <CharString name="Z">
          283 callsubr
          hstem
          67 59 331 47 vstem
          444 61 -28 callgsubr
        </CharString>
        <CharString name="Zacute">
          283 callsubr
          hstem
          67 59 331 47 vstem
          439 836 74 callsubr
          203 -669 -28 callgsubr
        </CharString>
        <CharString name="Zcaron">
          283 callsubr
          199 -20 hstem
          67 59 331 47 vstem
          452 856 248 callgsubr
          297 callsubr
          123 -674 -28 callgsubr
        </CharString>
        <CharString name="Zdotaccent">
          283 callsubr
          101 99 hstem
          67 59 115 99 117 47 vstem
          291 786 rmoveto
          29 20 20 30 29 -20 20 -29 -30 -20 -20 -29 -30 20 -20 30 hvcurveto
          153 -725 -28 callgsubr
        </CharString>
        <CharString name="a">
          118 callsubr
          376 callsubr
          hintmask 01111010
          348 94 -74 callgsubr
        </CharString>
        <CharString name="aacute">
          118 callsubr
          376 callsubr
          hintmask 01111010
          381 641 -91 callgsubr
          166 -440 -74 callgsubr
        </CharString>
        <CharString name="abreve">
          118 callsubr
          31 65 376 callsubr
          hintmask 01111101
          354 678 rmoveto
          -29 -11 -25 -49 -84 hhcurveto
          -75 -36 51 28 -11 hvcurveto
          -34 -16 rlineto
          -57 9 48 -71 98 hhcurveto
          98 49 71 57 8 hvcurveto
          -40 -569 -34 callgsubr
          hintmask 10111011
          -78 callgsubr
          hintmask 01111101
          17 callgsubr
          hintmask 10111101
          91 callsubr
        </CharString>
        <CharString name="acircumflex">
          118 callsubr
          376 callsubr
          hintmask 01111010
          233 620 -81 callsubr
          249 -438 -74 callgsubr
        </CharString>
        <CharString name="acute">
          54 534 156 hstem
          180 228 vstem
          408 641 -91 callgsubr
          endchar
        </CharString>
        <CharString name="acute.cap">
          54 542 156 hstem
          180 228 vstem
          408 649 -91 callgsubr
          endchar
        </CharString>
        <CharString name="adieresis">
          118 callsubr
          59 104 hstemhm
          46 77 -48 56 -33 103 62 103 -18 70 hintmask 0111100110000000
          314 563 -14 callsubr
          hintmask 0111110001000000
          198 -469 -34 callgsubr
          hintmask 1011101001000000
          -78 callgsubr
          hintmask 0111110001000000
          17 callgsubr
          hintmask 1011110001000000
          91 callsubr
        </CharString>
        <CharString name="ae">
          225 -15 57 171 49 1 45 145 51 hstemhm
          46 77 -48 56 217 76 242 74 -23 12 hintmask 1011101100000000
          576 504 rmoveto
          -67 -66 -32 -62 -42 hvcurveto
          86 -30 -110 8 -28 hhcurveto
          hintmask 1101011100000000
          -94 1 -64 -45 -57 vvcurveto
          -39 29 -12 27 3 vhcurveto
          34 2 18 64 84 hhcurveto
          79 34 -56 -70 hvcurveto
          -79 vlineto
          8 -29 -37 6 -41 hhcurveto
          hintmask 1101101010000000
          -153 -42 -75 -70 -82 57 -50 94 90 65 46 40 34 hvcurveto
          -59 36 60 -27 71 hhcurveto
          96 80 51 35 8 -4 11 -8 6 hvcurveto
          -36 -45 -43 -18 -52 hhcurveto
          -115 -38 89 99 hvcurveto
          hintmask 1011101100000000
          14 1 9 1 10 vhcurveto
          314 48 hlineto
          91 -40 102 -124 vhcurveto
          hintmask 1101101100000000
          -338 -291 rmoveto
          47 39 -12 -14 24 hvcurveto
          -93 vlineto
          -31 -33 -43 -23 -53 hhcurveto
          -59 -37 30 59 50 37 34 78 hvcurveto
          326 241 rmoveto
          hintmask 1011101100000000
          68 35 -60 -86 -1 hvcurveto
          -234 hlineto
          hintmask 1101101100000000
          89 17 49 57 66 hhcurveto
          endchar
        </CharString>
        <CharString name="agrave">
          118 callsubr
          376 callsubr
          hintmask 01111010
          164 690 3 callsubr
          19 -469 -74 callgsubr
        </CharString>
        <CharString name="amacron">
          118 callsubr
          74 57 hstemhm
          46 77 -48 56 -30 263 -16 70 hintmask 0111100100000000
          364 635 755 callsubr
          hintmask 0111110010000000
          -16 -484 -34 callgsubr
          hintmask 1011101010000000
          -78 callgsubr
          hintmask 0111110010000000
          17 callgsubr
          hintmask 1011110010000000
          91 callsubr
        </CharString>
        <CharString name="ampersand">
          180 -18 52 -51 61 246 43 294 48 hstemhm
          39 72 -11 63 181 64 hintmask 10110110
          262 34 rmoveto
          hintmask 10111010
          -108 -43 66 69 55 32 55 60 36 hvcurveto
          13 -16 15 -18 17 -18 55 -60 60 -59 59 -49 rrcurveto
          hintmask 10110110
          -42 -48 -57 -19 -55 hhcurveto
          593 vmoveto
          30 52 -22 -66 -61 -30 -69 -78 -31 hvcurveto
          -48 63 -25 52 38 vvcurveto
          52 31 44 68 vhcurveto
          353 -336 rmoveto
          36 2 -7 30 1 10 rrcurveto
          -148 hlineto
          -32 230 callsubr
          59 -6 -14 -59 -22 -48 -28 -37 rlinecurve
          -58 48 -62 61 -55 61 -10 11 -9 11 -9 10 rrcurveto
          71 27 75 70 98 vvcurveto
          90 -79 46 -66 -102 -61 -61 -92 -47 21 -53 53 -71 vhcurveto
          hintmask 10111010
          -101 -54 -34 -78 -64 vvcurveto
          -97 68 -76 141 79 75 26 55 60 vhcurveto
          hintmask 01110110
          -48 65 62 -32 51 hhcurveto
          49 22 30 26 13 -5 12 -9 8 hvcurveto
          -18 -12 -25 -10 -21 hhcurveto
          -33 -48 26 40 -53 hvcurveto
          34 47 27 59 16 73 rrcurveto
          endchar
        </CharString>
        <CharString name="aogonek">
          -44 -177 44 118 55 -25 -21 219 49 191 51 hstemhm
          46 77 -48 56 194 59 -36 70 hintmask 1101110010000000
          348 94 -34 callgsubr
          70 -149 rmoveto
          292 vlineto
          151 -120 22 -65 vhcurveto
          hintmask 1011101010000000
          -94 -64 -44 -56 -39 27 -13 29 3 hvcurveto
          40 3 20 58 82 hhcurveto
          77 35 -54 -72 hvcurveto
          -79 vlineto
          9 -30 -38 5 -40 hhcurveto
          hintmask 1101110010000000
          17 callgsubr
          hintmask 1011110010000000
          4 -24 10 -19 18 -10 rrcurveto
          hintmask 1011110100000000
          -33 -22 -24 -31 -40 vvcurveto
          -49 40 -29 50 35 34 15 20 14 vhcurveto
          2 9 459 callgsubr
          -16 -14 -28 hhcurveto
          -31 -20 15 32 31 17 22 31 17 hvcurveto
          hintmask 1011110010000000
          29 2 23 14 31 vvcurveto
          endchar
        </CharString>
        <CharString name="approxequal">
          2 189 59 1 59 0 61 hstemhm
          70 348 hintmask 10110000
          320 248 rmoveto
          -3 -3 0 1 -2 hvcurveto
          hintmask 01010000
          22 19 6 11 15 hvcurveto
          hintmask 10110000
          -12 -12 -16 -7 -20 1 rrcurveto
          hintmask 01010000
          -158 60 rmoveto
          -14 -2 -14 -6 -13 -8 11 9 13 7 15 flex1
          227 48 rmoveto
          -9 -28 -24 -21 -34 1 rrcurveto
          hintmask 10110000
          667 callsubr
          hintmask 01010000
          24 -11 -10 -13 -8 -17 -6 -19 rlinecurve
          31 -14 rlineto
          24 10 22 22 27 hhcurveto
          hintmask 10110000
          705 callgsubr
          rrcurveto
          hintmask 01010000
          -22 7 10 15 8 18 4 20 rlinecurve
          endchar
        </CharString>
        <CharString name="aring">
          118 callsubr
          39 42 90 42 hstemhm
          46 77 -48 56 13 46 91 45 22 70 hintmask 0111110011100000
          235 675 rmoveto
          28 18 -17 -28 -27 -18 -18 -28 -27 -18 18 27 28 18 17 27 hvcurveto
          -2 -132 rmoveto
          435 callsubr
          -55 -38 -35 -54 -51 36 -34 53 vhcurveto
          hintmask 0111111010100000
          115 -449 -34 callgsubr
          hintmask 1011110110100000
          -78 callgsubr
          hintmask 0111111010100000
          17 callgsubr
          hintmask 1011110010100000
          91 callsubr
        </CharString>
        <CharString name="asciicircum">
          -60 204 449 hstem
          52 382 vstem
          434 204 rmoveto
          -165 449 rlineto
          -42 hlineto
          -175 -449 rlineto
          67 hlineto
          128 337 122 -337 rlineto
          endchar
        </CharString>
        <CharString name="asciitilde">
          2 228 59 0 61 hstemhm
          100 348 hintmask 01100000
          131 241 rmoveto
          24 10 22 22 27 hhcurveto
          hintmask 10100000
          705 callgsubr
          -31 10 rcurveline
          -9 -28 -24 -21 -34 1 rrcurveto
          hintmask 01100000
          667 callsubr
          endchar
        </CharString>
        <CharString name="asterisk">
          27 356 354 hstem
          68 364 vstem
          268 552 rmoveto
          25 152 -25 8 -35 0 -27 -8 rlinecurve
          26 -153 -137 73 -15 -20 -10 -34 -2 -30 rlinecurve
          153 -23 -110 -109 15 -23 29 -21 27 -8 rlinecurve
          68 139 68 -138 28 8 28 21 15 22 rlinecurve
          -111 110 154 23 rlineto
          27 -10 34 -16 22 vhcurveto
          endchar
        </CharString>
        <CharString name="at">
          423 -164 47 161 55 -46 47 333 51 154 46 hstemhm
          57 56 745 54 hintmask 11011110
          566 153 rmoveto
          -32 -42 -33 -22 -46 hhcurveto
          -91 -22 80 84 12 hvcurveto
          79 12 44 91 97 hhcurveto
          49 37 -24 -17 16 hvcurveto
          139 -451 rmoveto
          -39 -61 -83 -19 -82 hhcurveto
          -239 -160 149 222 231 158 153 238 209 140 -113 -169 hvcurveto
          hintmask 10111110
          -158 -94 -102 -143 4 vhcurveto
          53 380 -64 -7 -2 -12 rlineto
          14 -28 -29 9 -41 hhcurveto
          -130 -87 -95 -141 -16 hvcurveto
          hintmask 11011110
          -141 -16 67 -63 88 hhcurveto
          60 48 29 31 35 hvcurveto
          hintmask 10111110
          -45 -4 23 -6 34 hhcurveto
          180 120 124 186 193 -161 128 -241 -272 -181 -174 -262 -247 178 -165 268 100 80 24 36 67 hvcurveto
          endchar
        </CharString>
        <CharString name="atilde">
          118 callsubr
          53 59 0 61 376 callsubr
          hintmask 0111101010000000
          371 664 rmoveto
          -8 -28 -23 -21 -34 1 rrcurveto
          hintmask 0111011010000000
          -53 3 -20 55 -60 3 -45 2 -46 -32 -17 -63 30 -13 rcurveline
          528 callsubr
          hintmask 0111101010000000
          50 -4 24 -52 64 -3 63 -3 35 43 14 57 rrcurveto
          -54 -560 -34 callgsubr
          hintmask 1011100110000000
          -78 callgsubr
          hintmask 0111101010000000
          17 callgsubr
          hintmask 1011101010000000
          91 callsubr
        </CharString>
        <CharString name="b">
          6 -15 54 406 59 hstem
          91 69 279 74 vstem
          160 383 rmoveto
          37 45 35 25 54 hhcurveto
          105 40 -93 -106 -107 -39 -100 -109 -62 -48 30 19 -21 hvcurveto
          610 vmoveto
          166 callsubr
          -594 vlineto
          69 -26 rlineto
          -15 34 34 -11 48 hhcurveto
          154 87 111 168 -4 hvcurveto
          166 -3 -91 74 -100 hhcurveto
          -71 -51 -35 -36 -37 hvcurveto
          endchar
        </CharString>
        <CharString name="backslash">
          -144 -131 827 hstem
          19 362 vstem
          381 -131 rmoveto
          -294 827 rlineto
          -68 hlineto
          295 -827 rlineto
          endchar
        </CharString>
        <CharString name="bar">
          783 callgsubr
          100 -195 rmoveto
          63 903 -63 hlineto
          endchar
        </CharString>
</ttFont>
